<?xml version="1.0" encoding="UTF-8" standalone="no"?>
<svg id="Layer_1" xmlns:rdf="http://www.w3.org/1999/02/22-rdf-syntax-ns#" xmlns="http://www.w3.org/2000/svg" enable-background="new 0 0 504 144" xmlns:osb="http://www.openswatchbook.org/uri/2009/osb" xml:space="preserve" height="116.7" viewBox="0 0 369.763 116.701" width="369.76" version="1.1" y="0px" x="0px" xmlns:cc="http://creativecommons.org/ns#" xmlns:xlink="http://www.w3.org/1999/xlink" xmlns:dc="http://purl.org/dc/elements/1.1/"><defs><linearGradient id="linearGradient10758" osb:paint="solid"><stop id="stop10760" stop-color="#767676" offset="0"/></linearGradient>
	<clipPath id="SVGID_2_">
		<use id="use5803" xlink:href="#SVGID_1_" height="100%" width="100%" y="0" x="0" overflow="visible"/>
	</clipPath>
		<clipPath id="SVGID_11_">
			<use id="use5853" xlink:href="#SVGID_10_" height="100%" width="100%" y="0" x="0" overflow="visible"/>
		</clipPath>
		<clipPath id="SVGID_79_">
			<use id="use6293" xlink:href="#SVGID_78_" height="100%" width="100%" y="0" x="0" overflow="visible"/>
		</clipPath>
		<linearGradient id="linearGradient10756" y2="46.546" gradientUnits="userSpaceOnUse" x2="290.35" y1="46.546" x1="256.5"><stop id="stop10754" stop-color="#10335a" offset="0"/></linearGradient>
		<rect id="SVGID_1_" y="2.973" width="501.27" x="0" height="137.03"/>
			<rect id="SVGID_10_" y="2.973" width="501.27" x="0" height="137.03"/>
			<rect id="SVGID_78_" y="2.973" width="501.27" x="0" height="137.03"/>
					</defs>
<g id="g10792" transform="translate(0,-4e-6)"><g id="g10196" fill="url(#linearGradient10758)"><polygon id="polygon5845" clip-path="url(#SVGID_2_)" transform="translate(-130.64 -14.465)" points="150.18 114.48 150.18 119.32 130.64 119.32 130.64 78.421 135.81 78.421 135.81 114.48"/><path id="path5887" d="m173.27 103.18c-0.484-4.629-4.252-8.02-9.257-8.02-5.921 0-8.773 4.198-9.257 8.02h18.514zm4.252 10.711c-3.767 4.197-7.751 6.082-12.648 6.082-9.957 0-15.286-7.212-15.286-14.694 0-7.965 5.706-14.639 14.479-14.639 8.665 0 14.693 6.62 14.693 16.522h-24.004c0.753 4.79 4.628 8.289 10.064 8.289 3.445 0 6.513-1.615 8.989-4.521l3.713 2.961z" clip-path="url(#SVGID_11_)" transform="translate(-130.64 -14.465)"/><path id="path5921" d="m193.73 104.52c-5.92 0-7.912 2.853-7.912 5.598s1.992 5.598 7.912 5.598c5.921 0 7.912-2.853 7.912-5.598s-1.992-5.598-7.912-5.598m7.751-3.983c0-4.629-4.629-5.65-8.397-5.65-2.637 0-5.113 0.646-7.75 1.937l-2.099-4.036c4.252-1.776 7.589-2.152 10.119-2.152 6.728 0 12.971 2.852 12.971 9.525v19.161h-4.521v-3.014c-2.476 2.583-5.221 3.66-8.935 3.66-6.835 0-12.217-3.822-12.217-10.065 0-5.113 4.359-9.634 12.163-9.634 2.961 0 6.082 0.861 8.666 3.176v-2.908z" clip-path="url(#SVGID_11_)" transform="translate(-130.64 -14.465)"/><path id="path5955" d="m210.63 91.284h4.844v3.982h0.108c2.422-4.359 4.736-4.629 8.827-4.629v5.113c-0.7-0.161-1.454-0.269-2.207-0.269-4.037 0-6.728 2.799-6.728 7.911v15.932h-4.844v-28.04z" clip-path="url(#SVGID_11_)" transform="translate(-130.64 -14.465)"/><path id="path5989" d="m245.62 103.02c0-4.198-1.723-7.858-6.513-7.858-4.521 0-7.266 3.068-7.266 8.396v15.77h-4.843v-28.042h4.843v3.283h0.108c1.453-2.53 4.575-3.929 7.696-3.929 5.436 0 10.819 2.96 10.819 10.549v18.138h-4.844v-16.307z" clip-path="url(#SVGID_11_)" transform="translate(-130.64 -14.465)"/><path id="path6023" d="m253.9 91.284h4.844v28.041h-4.844v-28.041zm2.422-12.271c1.885 0 3.392 1.507 3.392 3.391s-1.507 3.392-3.392 3.392c-1.884 0-3.391-1.508-3.391-3.392s1.507-3.391 3.391-3.391" clip-path="url(#SVGID_11_)" transform="translate(-130.64 -14.465)"/><path id="path6057" d="m280.82 103.02c0-4.198-1.723-7.858-6.513-7.858-4.521 0-7.267 3.068-7.267 8.396v15.77h-4.843v-28.042h4.843v3.283h0.108c1.453-2.53 4.575-3.929 7.696-3.929 5.436 0 10.818 2.96 10.818 10.549v18.138h-4.844v-16.307z" clip-path="url(#SVGID_11_)" transform="translate(-130.64 -14.465)"/><path id="path6091" d="m302.72 95.159c-6.566 0-10.279 5.221-10.279 9.904 0 6.458 5.059 10.333 10.117 10.333 5.544 0 10.065-4.468 10.065-10.065 0-5.651-4.629-10.172-9.903-10.172m9.903-3.875h4.844v24.166c0 10.334-4.951 15.716-15.824 15.716-4.95 0-9.311-1.83-13.077-6.028l3.875-3.067c2.96 3.714 6.403 4.844 9.311 4.844 7.535 0 10.872-3.767 10.872-10.011v-1.991h-0.107c-2.638 3.175-5.383 4.736-10.818 4.736-9.419 0-14.425-8.073-14.425-14.585 0-8.129 6.675-14.426 14.586-14.426 4.145 0 8.343 1.723 10.657 5.06h0.107v-4.414z" clip-path="url(#SVGID_11_)" transform="translate(-130.64 -14.465)"/><path id="path6125" d="m352.39 90.658c-2.628-2.385-5.987-3.797-9.54-3.797-7.74 0-14.651 6.182-14.651 14.7 0 8.615 7.106 14.699 14.651 14.699 4.088 0 7.301-1.509 9.88-3.942l2.97 3.358c-3.31 3.018-8.177 4.964-12.85 4.964-12.558 0-19.616-9.929-19.616-19.079s7.059-19.08 19.616-19.08c4.916 0 9.735 1.996 12.704 4.721l-3.164 3.456z" clip-path="url(#SVGID_11_)" transform="translate(-130.64 -14.465)"/><polygon id="polygon6159" clip-path="url(#SVGID_2_)" transform="translate(-130.64 -14.465)" points="362.31 87.445 362.31 99.177 376.77 99.177 376.77 103.56 362.31 103.56 362.31 115.68 376.77 115.68 376.77 120.06 357.64 120.06 357.64 83.064 376.77 83.064 376.77 87.445"/><polygon id="polygon6201" clip-path="url(#SVGID_2_)" transform="translate(-130.64 -14.465)" points="404.41 120.06 384.56 91.438 384.46 91.438 384.46 120.06 379.78 120.06 379.78 83.064 384.16 83.064 404.02 111.69 404.12 111.69 404.12 83.064 408.79 83.064 408.79 120.06"/><polygon id="polygon6243" clip-path="url(#SVGID_2_)" transform="translate(-130.64 -14.465)" points="420.62 120.06 420.62 87.446 411.37 87.446 411.37 83.064 434.54 83.064 434.54 87.446 425.29 87.446 425.29 120.06"/><polygon id="polygon6285" clip-path="url(#SVGID_2_)" transform="translate(-130.64 -14.465)" points="469.98 87.445 469.98 99.177 484.44 99.177 484.44 103.56 469.98 103.56 469.98 115.68 484.44 115.68 484.44 120.06 465.31 120.06 465.31 83.064 484.44 83.064 484.44 87.445"/><path id="path6327" d="m442.3 101.42c0.633 0.049 1.314 0.049 4.089 0.049 7.155 0 9.638-3.115 9.638-7.155 0-4.332-2.97-7.154-7.836-7.154h-5.891v14.26zm0 2.872v15.771h-4.673v-36.993h10.66c7.107 0 12.412 4.089 12.412 11.194 0 6.62-5.208 10.709-11.244 11.049l14.408 14.749h-6.571l-14.992-15.77z" clip-path="url(#SVGID_79_)" transform="translate(-130.64 -14.465)"/></g><g fill="#10335a"><path id="path6435" d="m140.5 43.068c3.02 1.215 4.968 1.215 8.208 1.352 8.636 0.352 16.912-6.738 16.767-15.545-0.286-9.375-8.777-14.41-17.562-14.41h-17.205c0.219 0.066 1.511 0.999 2.017 1.974 0.435 0.729 0.652 1.281 0.652 2.071l0.066 44.864c0 0.854-0.217 1.562-0.718 2.206-0.506 0.843-1.939 1.704-2.086 1.773h12.668c-0.077 0-1.369-0.847-1.872-1.56-0.579-0.712-0.935-1.426-0.935-2.419v-20.306zm4.675-1.491c-1.798-0.14-3.025-0.14-4.747-0.637l0.072-22.854h7.269c5.901 0 10.01 3.626 10.293 11.075 0.217 6.667-4.891 12.918-12.887 12.416" clip-path="url(#SVGID_79_)" transform="translate(-130.64 -14.465)"/><path id="path6437" d="m173.11 67.358c-0.066 0-1.604-0.576-1.938-1.348-0.288-0.799 0.049-1.409 0.334-2.199l3.98-9.468h16.037l3.531 8.519c0.394 1.074 0.966 1.857 0.512 2.92-0.455 0.9-2.047 1.576-2.107 1.576h11.829c-0.113 0-1.879-0.795-2.677-1.629-0.687-0.74-0.905-1.293-1.313-2.241l-16.32-38.991-16.71 39.094c-0.395 0.95-0.674 1.576-1.413 2.362-0.566 0.61-1.706 1.334-1.821 1.405h8.081zm17.282-15.715h-13.762l6.71-16.536 7.052 16.536z" clip-path="url(#SVGID_79_)" transform="translate(-130.64 -14.465)"/><path id="path6439" d="m223.98 47.621h3.528c0.965 0 2.107 0.217 3.07 0.9 0.679 0.383 1.142 0.835 1.532 1.512l9.444 14.978c0.34 0.611 0.678 0.949 1.253 1.396 0.676 0.503 1.189 0.733 1.987 0.951h7.395c-1.142-0.386-1.885-0.731-3.021-1.341-1.36-0.795-4.943-6.003-7.17-10.039-3.569-6.567-7.721-9.655-7.896-9.826 0.457-0.106 8.817-2.3 8.588-10.311-0.228-7.512-7.617-10.203-12.741-10.203h-13.471c0.112 0 1.248 0.77 1.657 1.565 0.276 0.555 0.5 0.96 0.5 1.626l-0.057 35.388c0 0.676-0.221 1.122-0.567 1.633-0.398 0.724-1.533 1.4-1.594 1.508h9.949s-1.027-0.676-1.477-1.238c-0.453-0.608-0.908-1.109-0.908-1.958v-16.541zm5.518-2.529c-0.57 0.231-5.343 0.11-5.518 0.06l0.062-17.339h3.69c7.734 0 17.283 11.055 1.766 17.279" clip-path="url(#SVGID_79_)" transform="translate(-130.64 -14.465)"/></g><path id="path6441" d="m276.47 28.377v35.779c0 0.849 0.334 1.35 0.737 1.971 0.448 0.555 1.474 1.226 1.536 1.226h-10.467c0.116-0.098 1.246-0.671 1.703-1.393 0.283-0.558 0.512-1.003 0.512-1.743v-35.893l-9.602 0.277c-1.145 0-2.058 0-2.96 0.731-0.854 0.624-1.366 2.356-1.366 2.417l-0.062-6.011h33.845v5.785c0-0.051-0.577-1.458-1.315-2.018-0.739-0.619-1.367-0.841-2.271-0.841l-10.29-0.287z" clip-path="url(#SVGID_79_)" transform="translate(-130.64 -14.465)" fill="url(#linearGradient10756)"/><g fill="#10335a"><path id="path6443" d="m320.5 63.886c0 0.84 0.172 1.743 0.507 2.188 0.582 0.729 2.168 1.279 2.278 1.279h-11.545c0.126-0.054 1.539-0.61 2.105-1.343 0.462-0.612 0.804-1.178 0.804-1.96l0.04-18.122-10.452-16.375c-0.572-0.889-0.962-1.397-1.764-2.124-0.966-0.842-2.734-1.744-2.844-1.789h12.236c-0.126 0-1.766 0.665-2.113 1.563-0.287 0.902 0.22 1.626 0.739 2.471l8.751 13.625 6.943-13.07c0.571-1.062 1.312-2.466 1.257-2.961-0.232-0.855-0.918-1.349-1.723-1.583h8.324c-1.147 0.284-1.723 0.788-2.518 1.518-0.724 0.672-1.079 1.286-1.525 2.19l-9.502 16.652v17.841z" clip-path="url(#SVGID_79_)" transform="translate(-130.64 -14.465)"/><path id="path6445" d="m346.78 67.38c0.065-0.151 1.499-1 2.019-1.917 0.354-0.648 0.643-1.217 0.643-2.067v-44.939c0-0.861-0.288-1.408-0.727-2.058-0.501-0.918-1.869-1.846-2.013-1.846h12.673c-0.076 0-1.373 0.713-1.875 1.495-0.576 0.781-0.933 1.418-0.933 2.409v44.8h17.346c1.583 0 2.597-0.493 3.963-1.355 1.293-0.772 2.023-1.477 2.741-2.836l-1.153 8.314h-32.684z" clip-path="url(#SVGID_79_)" transform="translate(-130.64 -14.465)"/><path id="path6447" d="m400.17 64.217c0 0.788 0.334 1.284 0.797 1.91 0.452 0.555 1.477 1.226 1.477 1.226h-9.948c0.066-0.098 1.183-0.774 1.585-1.51 0.352-0.509 0.579-0.95 0.579-1.626v-35.497c0-0.677-0.182-1.07-0.524-1.626-0.393-0.789-1.471-1.454-1.573-1.454h9.882s-1.024 0.55-1.477 1.173c-0.463 0.616-0.797 1.113-0.797 1.907v35.497z" clip-path="url(#SVGID_79_)" transform="translate(-130.64 -14.465)"/><path id="path6449" d="m435.21 28.377v35.779c0 0.849 0.35 1.35 0.756 1.971 0.453 0.555 1.46 1.226 1.531 1.226h-10.472c0.117-0.098 1.249-0.671 1.7-1.393 0.294-0.558 0.518-1.003 0.518-1.743v-35.893l-9.611 0.277c-1.143 0-2.039 0-2.948 0.731-0.862 0.624-1.368 2.356-1.368 2.417l-0.053-6.011h33.835v5.785c0-0.051-0.579-1.458-1.309-2.018-0.74-0.619-1.373-0.841-2.277-0.841l-10.302-0.287z" clip-path="url(#SVGID_79_)" transform="translate(-130.64 -14.465)"/><path id="path6451" d="m477.96 42.961c0.565 0 1.137-0.277 1.594-0.615 0.562-0.335 0.843-0.73 1.074-1.345v6.448c-0.121-0.623-0.402-1.005-0.914-1.347-0.502-0.391-0.966-0.451-1.641-0.451h-10.355v18.461h13.424c1.421 0 2.382-0.286 3.527-1.126 1.134-0.791 1.816-1.626 2.208-2.972l-1.18 7.344h-26.11c0.114-0.108 1.254-0.731 1.824-1.341 0.562-0.619 0.8-1.233 0.8-2.077v-33.875c0-1.072-0.288-1.96-0.911-2.63-0.684-0.848-2.095-1.75-2.214-1.797h24.896v5.149c-0.459-0.771-0.916-1.175-1.698-1.681-0.801-0.442-1.436-0.671-2.343-0.671h-12.157v14.526h10.176z" clip-path="url(#SVGID_79_)" transform="translate(-130.64 -14.465)"/><path id="path6453" d="m491.47 25.376v6.981h1.21v-2.74h0.975c0.665 0 1.121 0.08 1.382 0.224 0.445 0.268 0.67 0.79 0.67 1.594v0.554l0.028 0.227c0.009 0.029 0.02 0.046 0.02 0.072 0.01 0.024 0.016 0.05 0.019 0.069h1.147l-0.039-0.09c-0.046-0.051-0.066-0.168-0.069-0.357-0.016-0.18-0.02-0.357-0.02-0.521v-0.5c0-0.358-0.131-0.727-0.384-1.09-0.253-0.371-0.645-0.6-1.186-0.696 0.43-0.062 0.77-0.177 1.007-0.328 0.438-0.3 0.69-0.754 0.69-1.376 0-0.882-0.356-1.47-1.098-1.767-0.402-0.174-1.03-0.256-1.904-0.256h-2.448zm4.236 2.136c0 0.536-0.243 0.885-0.721 1.076-0.275 0.101-0.663 0.155-1.183 0.155h-1.123v-2.481h1.043c0.707 0 1.202 0.078 1.511 0.255 0.316 0.166 0.473 0.505 0.473 0.995m4.698 1.36c0-1.752-0.614-3.24-1.86-4.473-1.24-1.233-2.751-1.854-4.507-1.854-1.755 0-3.244 0.621-4.491 1.854-1.241 1.238-1.859 2.735-1.859 4.473 0 1.77 0.609 3.287 1.833 4.516 1.241 1.253 2.749 1.868 4.518 1.868 1.756 0 3.267-0.615 4.507-1.868 1.245-1.239 1.859-2.752 1.859-4.516m-6.367-5.446c1.521 0 2.813 0.533 3.888 1.601 1.07 1.064 1.604 2.361 1.604 3.865 0 1.514-0.533 2.81-1.604 3.892-1.074 1.067-2.355 1.601-3.888 1.601-1.526 0-2.811-0.534-3.89-1.601-1.044-1.082-1.59-2.378-1.59-3.892 0-1.504 0.546-2.801 1.601-3.865 1.091-1.068 2.366-1.601 3.879-1.601" clip-path="url(#SVGID_79_)" transform="translate(-130.64 -14.465)"/></g></g>
</svg>
