<?xml version="1.0" encoding="UTF-8" standalone="no"?>
<!-- Generator: Adobe Illustrator 16.0.4, SVG Export Plug-In . SVG Version: 6.00 Build 0)  -->
<svg id="Layer_1" xmlns:rdf="http://www.w3.org/1999/02/22-rdf-syntax-ns#" xmlns="http://www.w3.org/2000/svg" enable-background="new 0 0 504 144" xmlns:osb="http://www.openswatchbook.org/uri/2009/osb" xml:space="preserve" height="62.866" viewBox="0 0 424.56018 62.866459" width="424.56" version="1.1" y="0px" x="0px" xmlns:cc="http://creativecommons.org/ns#" xmlns:xlink="http://www.w3.org/1999/xlink" xmlns:dc="http://purl.org/dc/elements/1.1/"><defs><clipPath id="SVGID_2_">
		<use id="use7433" xlink:href="#SVGID_1_" height="100%" width="100%" y="0" x="0" overflow="visible"/>
	</clipPath><clipPath id="SVGID_11_">
			<use id="use7483" xlink:href="#SVGID_10_" height="100%" width="100%" y="0" x="0" overflow="visible"/>
		</clipPath><clipPath id="SVGID_79_">
			<use id="use7923" xlink:href="#SVGID_78_" height="100%" width="100%" y="0" x="0" overflow="visible"/>
		</clipPath>
		<rect id="SVGID_1_" y="11.965" width="488.9" x="10" height="116.7"/>
			<rect id="SVGID_10_" y="11.965" x="10" height="116.7" width="488.9"/>
			<rect id="SVGID_78_" y="11.965" x="10" height="116.7" width="488.9"/>
					</defs><metadata id="metadata8153"><rdf:RDF><cc:Work rdf:about=""><dc:format>image/svg+xml</dc:format><dc:type rdf:resource="http://purl.org/dc/dcmitype/StillImage"/><dc:title/></cc:Work></rdf:RDF></metadata>
<g id="g10108" fill="#fff" transform="matrix(1.1919 0 0 1.1919 -140.81 -76.583)"><polygon id="polygon7475" clip-path="url(#SVGID_2_)" transform="translate(-10 -11.666)" points="128.14 116.83 128.14 75.92 133.3 75.92 133.3 111.98 147.68 111.98 147.68 116.83"/><path id="path7517" d="m170.77 100.68c-0.484-4.629-4.252-8.018-9.257-8.018-5.921 0-8.773 4.197-9.257 8.018h18.514zm4.252 10.713c-3.767 4.197-7.751 6.082-12.648 6.082-9.957 0-15.286-7.213-15.286-14.695 0-7.965 5.706-14.639 14.479-14.639 8.665 0 14.693 6.619 14.693 16.523h-24.004c0.753 4.789 4.628 8.289 10.064 8.289 3.445 0 6.513-1.615 8.989-4.521l3.713 2.961z" clip-path="url(#SVGID_11_)" transform="translate(-10 -11.666)"/><path id="path7551" d="m191.22 102.02c-5.92 0-7.912 2.852-7.912 5.598 0 2.744 1.992 5.596 7.912 5.596 5.921 0 7.912-2.852 7.912-5.596-0.001-2.746-1.991-5.598-7.912-5.598m7.751-3.984c0-4.629-4.629-5.65-8.397-5.65-2.637 0-5.113 0.646-7.75 1.938l-2.099-4.037c4.252-1.777 7.589-2.152 10.119-2.152 6.728 0 12.971 2.852 12.971 9.525v19.162h-4.521v-3.016c-2.476 2.584-5.221 3.66-8.935 3.66-6.835 0-12.217-3.82-12.217-10.064 0-5.113 4.359-9.633 12.163-9.633 2.961 0 6.082 0.859 8.666 3.176v-2.909z" clip-path="url(#SVGID_11_)" transform="translate(-10 -11.666)"/><path id="path7585" d="m208.12 88.785h4.844v3.982h0.108c2.421-4.359 4.736-4.629 8.828-4.629v5.113c-0.701-0.162-1.455-0.27-2.207-0.27-4.037 0-6.729 2.799-6.729 7.912v15.932h-4.844v-28.04z" clip-path="url(#SVGID_11_)" transform="translate(-10 -11.666)"/><path id="path7619" d="m243.11 100.52c0-4.197-1.724-7.857-6.513-7.857-4.521 0-7.266 3.066-7.266 8.395v15.771h-4.844v-28.042h4.844v3.283h0.107c1.453-2.531 4.574-3.93 7.695-3.93 5.437 0 10.819 2.959 10.819 10.549v18.139h-4.843v-16.308z" clip-path="url(#SVGID_11_)" transform="translate(-10 -11.666)"/><path id="path7653" d="m251.4 88.785h4.843v28.041h-4.843v-28.041zm2.421-12.271c1.883 0 3.391 1.506 3.391 3.391 0 1.883-1.508 3.391-3.391 3.391-1.884 0-3.39-1.508-3.39-3.391 0-1.885 1.506-3.391 3.39-3.391" clip-path="url(#SVGID_11_)" transform="translate(-10 -11.666)"/><path id="path7687" d="m278.31 100.52c0-4.197-1.723-7.857-6.512-7.857-4.521 0-7.268 3.066-7.268 8.395v15.771h-4.842v-28.042h4.842v3.283h0.109c1.453-2.531 4.574-3.93 7.695-3.93 5.436 0 10.818 2.959 10.818 10.549v18.139h-4.844v-16.308z" clip-path="url(#SVGID_11_)" transform="translate(-10 -11.666)"/><path id="path7721" d="m300.22 92.66c-6.568 0-10.281 5.221-10.281 9.902 0 6.459 5.061 10.334 10.119 10.334 5.543 0 10.064-4.467 10.064-10.064 0-5.652-4.629-10.172-9.902-10.172m9.902-3.875h4.844v24.166c0 10.334-4.951 15.715-15.824 15.715-4.951 0-9.311-1.83-13.078-6.027l3.875-3.068c2.961 3.715 6.404 4.844 9.312 4.844 7.533 0 10.871-3.768 10.871-10.012v-1.99h-0.107c-2.637 3.176-5.383 4.736-10.818 4.736-9.42 0-14.424-8.072-14.424-14.586 0-8.127 6.674-14.424 14.584-14.424 4.146 0 8.344 1.721 10.658 5.059h0.107v-4.413z" clip-path="url(#SVGID_11_)" transform="translate(-10 -11.666)"/><path id="path7755" d="m349.88 88.158c-2.629-2.385-5.988-3.797-9.541-3.797-7.74 0-14.65 6.182-14.65 14.699 0 8.617 7.105 14.701 14.65 14.701 4.088 0 7.301-1.51 9.881-3.943l2.969 3.359c-3.309 3.018-8.176 4.963-12.85 4.963-12.559 0-19.615-9.928-19.615-19.08 0-9.148 7.057-19.08 19.615-19.08 4.916 0 9.734 1.996 12.705 4.723l-3.164 3.455z" clip-path="url(#SVGID_11_)" transform="translate(-10 -11.666)"/><polygon id="polygon7789" clip-path="url(#SVGID_2_)" transform="translate(-10 -11.666)" points="355.13 117.56 355.13 80.564 374.26 80.564 374.26 84.945 359.81 84.945 359.81 96.678 374.26 96.678 374.26 101.06 359.81 101.06 359.81 113.18 374.26 113.18 374.26 117.56"/><polygon id="polygon7831" clip-path="url(#SVGID_2_)" transform="translate(-10 -11.666)" points="401.62 109.19 401.62 80.564 406.29 80.564 406.29 117.56 401.91 117.56 382.05 88.938 381.95 88.938 381.95 117.56 377.28 117.56 377.28 80.564 381.66 80.564 401.52 109.19"/><polygon id="polygon7873" clip-path="url(#SVGID_2_)" transform="translate(-10 -11.666)" points="432.03 80.564 432.03 84.945 422.78 84.945 422.78 117.56 418.11 117.56 418.11 84.945 408.86 84.945 408.86 80.564"/><polygon id="polygon7915" clip-path="url(#SVGID_2_)" transform="translate(-10 -11.666)" points="434.8 117.56 434.8 80.564 453.93 80.564 453.93 84.945 439.48 84.945 439.48 96.678 453.93 96.678 453.93 101.06 439.48 101.06 439.48 113.18 453.93 113.18 453.93 117.56"/><path id="path7957" d="m462.79 98.916c0.633 0.049 1.312 0.049 4.088 0.049 7.156 0 9.637-3.115 9.637-7.156 0-4.332-2.969-7.154-7.836-7.154h-5.889v14.261zm0 2.871v15.771h-4.674v-36.994h10.66c7.107 0 12.412 4.09 12.412 11.195 0 6.621-5.207 10.709-11.244 11.049l14.408 14.75h-6.57l-14.992-15.771z" clip-path="url(#SVGID_79_)" transform="translate(-10 -11.666)"/></g>
</svg>
