<?xml version="1.0" encoding="UTF-8" standalone="no"?>
<svg id="Layer_1" xmlns:rdf="http://www.w3.org/1999/02/22-rdf-syntax-ns#" xmlns="http://www.w3.org/2000/svg" enable-background="new 0 0 504 144" xmlns:osb="http://www.openswatchbook.org/uri/2009/osb" xml:space="preserve" height="117" viewBox="0 0 371 117" width="371" version="1.1" y="0px" x="0px" xmlns:cc="http://creativecommons.org/ns#" xmlns:xlink="http://www.w3.org/1999/xlink" xmlns:dc="http://purl.org/dc/elements/1.1/"><defs><linearGradient id="linearGradient9940" osb:paint="solid"><stop id="stop9942" stop-color="#10335a" offset="0"/></linearGradient><clipPath id="SVGID_2_">
		<use id="use7433" xlink:href="#SVGID_1_" height="100%" width="100%" y="0" x="0" overflow="visible"/>
	</clipPath><clipPath id="SVGID_11_">
			<use id="use7483" xlink:href="#SVGID_10_" height="100%" width="100%" y="0" x="0" overflow="visible"/>
		</clipPath><clipPath id="SVGID_79_">
			<use id="use7923" xlink:href="#SVGID_78_" height="100%" width="100%" y="0" x="0" overflow="visible"/>
		</clipPath><linearGradient id="linearGradient9950" y2="43.429" gradientUnits="userSpaceOnUse" x2="202.79" y1="43.429" x1="162.53"><stop id="stop9948" stop-color="#10335a" offset="0"/></linearGradient><linearGradient id="linearGradient10194" gradientUnits="userSpaceOnUse"><stop id="stop10020" stop-color="#767676" offset="0"/></linearGradient>
		<rect id="SVGID_1_" y="11.965" width="488.9" x="10" height="116.7"/>
			<rect id="SVGID_10_" y="11.965" x="10" height="116.7" width="488.9"/>
			<rect id="SVGID_78_" y="11.965" x="10" height="116.7" width="488.9"/>
					</defs><g>
<g id="g10108" fill="url(#linearGradient10194)" transform="translate(-118.14 -0.299)"><polygon id="polygon7475" clip-path="url(#SVGID_2_)" transform="translate(-10 -11.666)" points="133.3 111.98 147.68 111.98 147.68 116.83 128.14 116.83 128.14 75.92 133.3 75.92"/><path id="path7517" d="m170.77 100.68c-0.484-4.629-4.252-8.018-9.257-8.018-5.921 0-8.773 4.197-9.257 8.018h18.514zm4.252 10.713c-3.767 4.197-7.751 6.082-12.648 6.082-9.957 0-15.286-7.213-15.286-14.695 0-7.965 5.706-14.639 14.479-14.639 8.665 0 14.693 6.619 14.693 16.523h-24.004c0.753 4.789 4.628 8.289 10.064 8.289 3.445 0 6.513-1.615 8.989-4.521l3.713 2.961z" clip-path="url(#SVGID_11_)" transform="translate(-10 -11.666)"/><path id="path7551" d="m191.22 102.02c-5.92 0-7.912 2.852-7.912 5.598 0 2.744 1.992 5.596 7.912 5.596 5.921 0 7.912-2.852 7.912-5.596-0.001-2.746-1.991-5.598-7.912-5.598m7.751-3.984c0-4.629-4.629-5.65-8.397-5.65-2.637 0-5.113 0.646-7.75 1.938l-2.099-4.037c4.252-1.777 7.589-2.152 10.119-2.152 6.728 0 12.971 2.852 12.971 9.525v19.162h-4.521v-3.016c-2.476 2.584-5.221 3.66-8.935 3.66-6.835 0-12.217-3.82-12.217-10.064 0-5.113 4.359-9.633 12.163-9.633 2.961 0 6.082 0.859 8.666 3.176v-2.909z" clip-path="url(#SVGID_11_)" transform="translate(-10 -11.666)"/><path id="path7585" d="m208.12 88.785h4.844v3.982h0.108c2.421-4.359 4.736-4.629 8.828-4.629v5.113c-0.701-0.162-1.455-0.27-2.207-0.27-4.037 0-6.729 2.799-6.729 7.912v15.932h-4.844v-28.04z" clip-path="url(#SVGID_11_)" transform="translate(-10 -11.666)"/><path id="path7619" d="m243.11 100.52c0-4.197-1.724-7.857-6.513-7.857-4.521 0-7.266 3.066-7.266 8.395v15.771h-4.844v-28.042h4.844v3.283h0.107c1.453-2.531 4.574-3.93 7.695-3.93 5.437 0 10.819 2.959 10.819 10.549v18.139h-4.843v-16.308z" clip-path="url(#SVGID_11_)" transform="translate(-10 -11.666)"/><path id="path7653" d="m251.4 88.785h4.843v28.041h-4.843v-28.041zm2.421-12.271c1.883 0 3.391 1.506 3.391 3.391 0 1.883-1.508 3.391-3.391 3.391-1.884 0-3.39-1.508-3.39-3.391 0-1.885 1.506-3.391 3.39-3.391" clip-path="url(#SVGID_11_)" transform="translate(-10 -11.666)"/><path id="path7687" d="m278.31 100.52c0-4.197-1.723-7.857-6.512-7.857-4.521 0-7.268 3.066-7.268 8.395v15.771h-4.842v-28.042h4.842v3.283h0.109c1.453-2.531 4.574-3.93 7.695-3.93 5.436 0 10.818 2.959 10.818 10.549v18.139h-4.844v-16.308z" clip-path="url(#SVGID_11_)" transform="translate(-10 -11.666)"/><path id="path7721" d="m300.22 92.66c-6.568 0-10.281 5.221-10.281 9.902 0 6.459 5.061 10.334 10.119 10.334 5.543 0 10.064-4.467 10.064-10.064 0-5.652-4.629-10.172-9.902-10.172m9.902-3.875h4.844v24.166c0 10.334-4.951 15.715-15.824 15.715-4.951 0-9.311-1.83-13.078-6.027l3.875-3.068c2.961 3.715 6.404 4.844 9.312 4.844 7.533 0 10.871-3.768 10.871-10.012v-1.99h-0.107c-2.637 3.176-5.383 4.736-10.818 4.736-9.42 0-14.424-8.072-14.424-14.586 0-8.127 6.674-14.424 14.584-14.424 4.146 0 8.344 1.721 10.658 5.059h0.107v-4.413z" clip-path="url(#SVGID_11_)" transform="translate(-10 -11.666)"/><path id="path7755" d="m349.88 88.158c-2.629-2.385-5.988-3.797-9.541-3.797-7.74 0-14.65 6.182-14.65 14.699 0 8.617 7.105 14.701 14.65 14.701 4.088 0 7.301-1.51 9.881-3.943l2.969 3.359c-3.309 3.018-8.176 4.963-12.85 4.963-12.559 0-19.615-9.928-19.615-19.08 0-9.148 7.057-19.08 19.615-19.08 4.916 0 9.734 1.996 12.705 4.723l-3.164 3.455z" clip-path="url(#SVGID_11_)" transform="translate(-10 -11.666)"/><polygon id="polygon7789" clip-path="url(#SVGID_2_)" transform="translate(-10 -11.666)" points="374.26 84.945 359.81 84.945 359.81 96.678 374.26 96.678 374.26 101.06 359.81 101.06 359.81 113.18 374.26 113.18 374.26 117.56 355.13 117.56 355.13 80.564 374.26 80.564"/><polygon id="polygon7831" clip-path="url(#SVGID_2_)" transform="translate(-10 -11.666)" points="406.29 117.56 401.91 117.56 382.05 88.938 381.95 88.938 381.95 117.56 377.28 117.56 377.28 80.564 381.66 80.564 401.52 109.19 401.62 109.19 401.62 80.564 406.29 80.564"/><polygon id="polygon7873" clip-path="url(#SVGID_2_)" transform="translate(-10 -11.666)" points="408.86 80.564 432.03 80.564 432.03 84.945 422.78 84.945 422.78 117.56 418.11 117.56 418.11 84.945 408.86 84.945"/><polygon id="polygon7915" clip-path="url(#SVGID_2_)" transform="translate(-10 -11.666)" points="453.93 84.945 439.48 84.945 439.48 96.678 453.93 96.678 453.93 101.06 439.48 101.06 439.48 113.18 453.93 113.18 453.93 117.56 434.8 117.56 434.8 80.564 453.93 80.564"/><path id="path7957" d="m462.79 98.916c0.633 0.049 1.312 0.049 4.088 0.049 7.156 0 9.637-3.115 9.637-7.156 0-4.332-2.969-7.154-7.836-7.154h-5.889v14.261zm0 2.871v15.771h-4.674v-36.994h10.66c7.107 0 12.412 4.09 12.412 11.195 0 6.621-5.207 10.709-11.244 11.049l14.408 14.75h-6.57l-14.992-15.771z" clip-path="url(#SVGID_79_)" transform="translate(-10 -11.666)"/></g><path id="path8129" d="m138 40.568c3.02 1.215 4.968 1.215 8.208 1.352 8.636 0.352 16.912-6.738 16.767-15.545-0.286-9.375-8.777-14.41-17.562-14.41h-17.205c0.219 0.066 1.511 0.999 2.017 1.974 0.435 0.729 0.652 1.281 0.652 2.071l0.066 44.864c0 0.854-0.217 1.562-0.718 2.206-0.506 0.843-1.939 1.704-2.086 1.772h12.668c-0.077 0-1.369-0.847-1.872-1.56-0.579-0.712-0.935-1.426-0.935-2.419v-20.305zm4.675-1.49c-1.798-0.14-3.025-0.14-4.747-0.637l0.072-22.854h7.269c5.901 0 10.01 3.626 10.293 11.075 0.217 6.667-4.891 12.918-12.887 12.416" clip-path="url(#SVGID_79_)" transform="translate(-128.14 -11.965)" fill="url(#linearGradient9940)"/><path id="path8131" d="m170.61 64.859c-0.066 0-1.604-0.576-1.938-1.349-0.288-0.799 0.049-1.409 0.334-2.199l3.98-9.468h16.037l3.531 8.52c0.394 1.073 0.966 1.856 0.512 2.92-0.455 0.899-2.047 1.576-2.107 1.576h11.829c-0.113 0-1.879-0.796-2.677-1.63-0.687-0.739-0.905-1.293-1.313-2.24l-16.32-38.991-16.72 39.094c-0.395 0.95-0.674 1.576-1.413 2.362-0.566 0.609-1.706 1.334-1.821 1.405h8.081zm17.281-15.715h-13.762l6.71-16.536 7.052 16.536z" clip-path="url(#SVGID_79_)" transform="translate(-128.14 -11.965)" fill="url(#linearGradient9950)"/></g><g fill="#10335a"><path id="path8133" d="m221.48 45.121h3.528c0.965 0 2.106 0.217 3.069 0.9 0.68 0.383 1.143 0.835 1.532 1.512l9.444 14.978c0.34 0.611 0.678 0.949 1.253 1.396 0.676 0.503 1.188 0.732 1.987 0.95h7.395c-1.143-0.386-1.885-0.73-3.021-1.341-1.361-0.795-4.944-6.003-7.17-10.039-3.569-6.567-7.722-9.655-7.896-9.826 0.457-0.106 8.816-2.3 8.588-10.311-0.229-7.512-7.617-10.203-12.74-10.203h-13.472c0.112 0 1.248 0.77 1.657 1.565 0.275 0.555 0.5 0.96 0.5 1.626l-0.057 35.388c0 0.676-0.222 1.122-0.567 1.633-0.398 0.725-1.533 1.4-1.594 1.508h9.949s-1.027-0.676-1.477-1.237c-0.453-0.608-0.908-1.109-0.908-1.958v-16.541zm5.517-2.529c-0.569 0.231-5.342 0.11-5.518 0.06l0.062-17.339h3.689c7.736 0 17.285 11.055 1.767 17.279" clip-path="url(#SVGID_79_)" transform="translate(-128.14 -11.965)"/><path id="path8135" d="m273.96 25.877v35.779c0 0.849 0.334 1.35 0.738 1.971 0.447 0.555 1.473 1.226 1.535 1.226h-10.467c0.117-0.098 1.246-0.671 1.703-1.393 0.283-0.558 0.512-1.003 0.512-1.743v-35.892l-9.602 0.277c-1.145 0-2.057 0-2.959 0.731-0.854 0.624-1.367 2.356-1.367 2.417l-0.062-6.011h33.846v5.785c0-0.051-0.576-1.458-1.314-2.018-0.74-0.619-1.367-0.841-2.271-0.841l-10.292-0.288z" clip-path="url(#SVGID_79_)" transform="translate(-128.14 -11.965)"/><path id="path8137" d="m318 61.386c0 0.841 0.172 1.743 0.506 2.188 0.582 0.729 2.168 1.279 2.279 1.279h-11.545c0.127-0.055 1.539-0.61 2.105-1.344 0.463-0.611 0.805-1.178 0.805-1.96l0.039-18.122-10.451-16.375c-0.574-0.889-0.963-1.397-1.764-2.124-0.967-0.842-2.734-1.744-2.846-1.789h12.238c-0.127 0-1.766 0.665-2.115 1.563-0.287 0.902 0.221 1.626 0.74 2.471l8.752 13.625 6.943-13.07c0.57-1.062 1.311-2.466 1.256-2.961-0.232-0.855-0.918-1.349-1.723-1.583h8.324c-1.146 0.284-1.723 0.788-2.518 1.518-0.725 0.672-1.078 1.286-1.525 2.19l-9.502 16.652v17.842z" clip-path="url(#SVGID_79_)" transform="translate(-128.14 -11.965)"/><path id="path8139" d="m344.28 64.88c0.066-0.151 1.498-1 2.02-1.917 0.354-0.648 0.641-1.218 0.641-2.067v-44.939c0-0.861-0.287-1.408-0.725-2.058-0.502-0.918-1.869-1.846-2.014-1.846h12.674c-0.076 0-1.373 0.713-1.875 1.495-0.576 0.781-0.934 1.418-0.934 2.409v44.8h17.346c1.582 0 2.598-0.493 3.963-1.355 1.293-0.771 2.023-1.477 2.74-2.836l-1.152 8.314h-32.684z" clip-path="url(#SVGID_79_)" transform="translate(-128.14 -11.965)"/><path id="path8141" d="m397.67 61.717c0 0.788 0.334 1.284 0.797 1.91 0.453 0.555 1.477 1.226 1.477 1.226h-9.949c0.068-0.098 1.184-0.773 1.586-1.51 0.352-0.509 0.578-0.95 0.578-1.626v-35.497c0-0.677-0.18-1.07-0.523-1.626-0.393-0.789-1.471-1.454-1.572-1.454h9.881s-1.023 0.55-1.477 1.173c-0.463 0.616-0.797 1.113-0.797 1.907v35.497z" clip-path="url(#SVGID_79_)" transform="translate(-128.14 -11.965)"/><path id="path8143" d="m432.7 25.877v35.779c0 0.849 0.352 1.35 0.756 1.971 0.453 0.555 1.461 1.226 1.531 1.226h-10.47c0.117-0.098 1.25-0.671 1.701-1.393 0.293-0.558 0.518-1.003 0.518-1.743v-35.892l-9.613 0.277c-1.141 0-2.037 0-2.947 0.731-0.861 0.624-1.367 2.356-1.367 2.417l-0.053-6.011h33.834v5.785c0-0.051-0.578-1.458-1.309-2.018-0.74-0.619-1.373-0.841-2.277-0.841l-10.304-0.288z" clip-path="url(#SVGID_79_)" transform="translate(-128.14 -11.965)"/><path id="path8145" d="m475.46 40.461c0.566 0 1.139-0.277 1.596-0.615 0.561-0.335 0.842-0.73 1.072-1.345v6.448c-0.121-0.623-0.4-1.005-0.914-1.347-0.502-0.391-0.965-0.451-1.639-0.451h-10.355v18.461h13.424c1.42 0 2.381-0.286 3.525-1.126 1.135-0.791 1.818-1.626 2.209-2.973l-1.18 7.345h-26.111c0.115-0.108 1.254-0.731 1.824-1.342 0.562-0.619 0.801-1.232 0.801-2.077v-33.874c0-1.072-0.289-1.96-0.912-2.63-0.682-0.848-2.094-1.75-2.213-1.797h24.896v5.149c-0.459-0.771-0.916-1.175-1.699-1.681-0.799-0.442-1.434-0.671-2.342-0.671h-12.158v14.526h10.176z" clip-path="url(#SVGID_79_)" transform="translate(-128.14 -11.965)"/><path id="path8147" d="m489.96 22.876v6.981h1.211v-2.74h0.975c0.666 0 1.121 0.08 1.383 0.224 0.445 0.268 0.668 0.79 0.668 1.594v0.554l0.029 0.227c0.01 0.029 0.02 0.046 0.02 0.072 0.01 0.024 0.016 0.05 0.02 0.069h1.146l-0.039-0.09c-0.047-0.051-0.066-0.168-0.068-0.357-0.018-0.18-0.021-0.357-0.021-0.521v-0.5c0-0.358-0.129-0.727-0.383-1.09-0.252-0.371-0.645-0.6-1.186-0.696 0.43-0.062 0.77-0.177 1.008-0.328 0.438-0.3 0.689-0.754 0.689-1.376 0-0.882-0.355-1.47-1.098-1.767-0.402-0.174-1.031-0.256-1.904-0.256h-2.45zm4.236 2.136c0 0.536-0.242 0.885-0.719 1.076-0.277 0.101-0.664 0.155-1.184 0.155h-1.123v-2.481h1.043c0.707 0 1.201 0.078 1.512 0.255 0.315 0.166 0.471 0.505 0.471 0.995m4.699 1.36c0-1.752-0.615-3.24-1.861-4.473-1.238-1.233-2.75-1.854-4.506-1.854-1.754 0-3.244 0.621-4.492 1.854-1.24 1.238-1.857 2.735-1.857 4.473 0 1.77 0.607 3.287 1.832 4.516 1.24 1.253 2.75 1.868 4.518 1.868 1.756 0 3.268-0.615 4.506-1.868 1.245-1.239 1.86-2.752 1.86-4.516m-6.367-5.446c1.521 0 2.814 0.533 3.887 1.601 1.072 1.064 1.605 2.361 1.605 3.865 0 1.514-0.533 2.81-1.605 3.892-1.072 1.067-2.354 1.601-3.887 1.601-1.527 0-2.811-0.534-3.889-1.601-1.045-1.082-1.59-2.378-1.59-3.892 0-1.504 0.545-2.801 1.6-3.865 1.09-1.068 2.367-1.601 3.879-1.601" clip-path="url(#SVGID_79_)" transform="translate(-128.14 -11.965)"/>
</g></svg>
