<?xml version="1.0" encoding="UTF-8" standalone="no"?>
<svg id="Layer_1" xmlns:rdf="http://www.w3.org/1999/02/22-rdf-syntax-ns#" xmlns="http://www.w3.org/2000/svg" enable-background="new 0 0 504 144" xmlns:osb="http://www.openswatchbook.org/uri/2009/osb" xml:space="preserve" height="52.745" viewBox="0 0 353.79401 52.745001" width="353.79" version="1.1" y="0px" x="0px" xmlns:cc="http://creativecommons.org/ns#" xmlns:xlink="http://www.w3.org/1999/xlink" xmlns:dc="http://purl.org/dc/elements/1.1/"><defs><linearGradient id="linearGradient10758" osb:paint="solid"><stop id="stop10760" stop-color="#fff" offset="0"/></linearGradient><clipPath id="SVGID_2_">
		<use id="use5803" xlink:href="#SVGID_1_" height="100%" width="100%" y="0" x="0" overflow="visible"/>
	</clipPath><clipPath id="SVGID_11_">
			<use id="use5853" xlink:href="#SVGID_10_" height="100%" width="100%" y="0" x="0" overflow="visible"/>
		</clipPath><clipPath id="SVGID_79_">
			<use id="use6293" xlink:href="#SVGID_78_" height="100%" width="100%" y="0" x="0" overflow="visible"/>
		</clipPath>
		<rect id="SVGID_1_" y="2.973" width="501.27" x="0" height="137.03"/>
			<rect id="SVGID_10_" y="2.973" width="501.27" x="0" height="137.03"/>
			<rect id="SVGID_78_" y="2.973" width="501.27" x="0" height="137.03"/>
					</defs>
<g id="g10196" fill="url(#linearGradient10758)" transform="translate(-.001 -63.956)"><polygon id="polygon5845" clip-path="url(#SVGID_2_)" transform="translate(-130.64 -14.465)" points="135.81 114.48 150.18 114.48 150.18 119.32 130.64 119.32 130.64 78.421 135.81 78.421"/><path id="path5887" d="m173.27 103.18c-0.484-4.629-4.252-8.02-9.257-8.02-5.921 0-8.773 4.198-9.257 8.02h18.514zm4.252 10.711c-3.767 4.197-7.751 6.082-12.648 6.082-9.957 0-15.286-7.212-15.286-14.694 0-7.965 5.706-14.639 14.479-14.639 8.665 0 14.693 6.62 14.693 16.522h-24.004c0.753 4.79 4.628 8.289 10.064 8.289 3.445 0 6.513-1.615 8.989-4.521l3.713 2.961z" clip-path="url(#SVGID_11_)" transform="translate(-130.64 -14.465)"/><path id="path5921" d="m193.73 104.52c-5.92 0-7.912 2.853-7.912 5.598s1.992 5.598 7.912 5.598c5.921 0 7.912-2.853 7.912-5.598s-1.992-5.598-7.912-5.598m7.751-3.983c0-4.629-4.629-5.65-8.397-5.65-2.637 0-5.113 0.646-7.75 1.937l-2.099-4.036c4.252-1.776 7.589-2.152 10.119-2.152 6.728 0 12.971 2.852 12.971 9.525v19.161h-4.521v-3.014c-2.476 2.583-5.221 3.66-8.935 3.66-6.835 0-12.217-3.822-12.217-10.065 0-5.113 4.359-9.634 12.163-9.634 2.961 0 6.082 0.861 8.666 3.176v-2.908z" clip-path="url(#SVGID_11_)" transform="translate(-130.64 -14.465)"/><path id="path5955" d="m210.63 91.284h4.844v3.982h0.108c2.422-4.359 4.736-4.629 8.827-4.629v5.113c-0.7-0.161-1.454-0.269-2.207-0.269-4.037 0-6.728 2.799-6.728 7.911v15.932h-4.844v-28.04z" clip-path="url(#SVGID_11_)" transform="translate(-130.64 -14.465)"/><path id="path5989" d="m245.62 103.02c0-4.198-1.723-7.858-6.513-7.858-4.521 0-7.266 3.068-7.266 8.396v15.77h-4.843v-28.042h4.843v3.283h0.108c1.453-2.53 4.575-3.929 7.696-3.929 5.436 0 10.819 2.96 10.819 10.549v18.138h-4.844v-16.307z" clip-path="url(#SVGID_11_)" transform="translate(-130.64 -14.465)"/><path id="path6023" d="m253.9 91.284h4.844v28.041h-4.844v-28.041zm2.422-12.271c1.885 0 3.392 1.507 3.392 3.391s-1.507 3.392-3.392 3.392c-1.884 0-3.391-1.508-3.391-3.392s1.507-3.391 3.391-3.391" clip-path="url(#SVGID_11_)" transform="translate(-130.64 -14.465)"/><path id="path6057" d="m280.82 103.02c0-4.198-1.723-7.858-6.513-7.858-4.521 0-7.267 3.068-7.267 8.396v15.77h-4.843v-28.042h4.843v3.283h0.108c1.453-2.53 4.575-3.929 7.696-3.929 5.436 0 10.818 2.96 10.818 10.549v18.138h-4.844v-16.307z" clip-path="url(#SVGID_11_)" transform="translate(-130.64 -14.465)"/><path id="path6091" d="m302.72 95.159c-6.566 0-10.279 5.221-10.279 9.904 0 6.458 5.059 10.333 10.117 10.333 5.544 0 10.065-4.468 10.065-10.065 0-5.651-4.629-10.172-9.903-10.172m9.903-3.875h4.844v24.166c0 10.334-4.951 15.716-15.824 15.716-4.95 0-9.311-1.83-13.077-6.028l3.875-3.067c2.96 3.714 6.403 4.844 9.311 4.844 7.535 0 10.872-3.767 10.872-10.011v-1.991h-0.107c-2.638 3.175-5.383 4.736-10.818 4.736-9.419 0-14.425-8.073-14.425-14.585 0-8.129 6.675-14.426 14.586-14.426 4.145 0 8.343 1.723 10.657 5.06h0.107v-4.414z" clip-path="url(#SVGID_11_)" transform="translate(-130.64 -14.465)"/><path id="path6125" d="m352.39 90.658c-2.628-2.385-5.987-3.797-9.54-3.797-7.74 0-14.651 6.182-14.651 14.7 0 8.615 7.106 14.699 14.651 14.699 4.088 0 7.301-1.509 9.88-3.942l2.97 3.358c-3.31 3.018-8.177 4.964-12.85 4.964-12.558 0-19.616-9.929-19.616-19.079s7.059-19.08 19.616-19.08c4.916 0 9.735 1.996 12.704 4.721l-3.164 3.456z" clip-path="url(#SVGID_11_)" transform="translate(-130.64 -14.465)"/><polygon id="polygon6159" clip-path="url(#SVGID_2_)" transform="translate(-130.64 -14.465)" points="362.31 115.68 376.77 115.68 376.77 120.06 357.64 120.06 357.64 83.064 376.77 83.064 376.77 87.445 362.31 87.445 362.31 99.177 376.77 99.177 376.77 103.56 362.31 103.56"/><polygon id="polygon6201" clip-path="url(#SVGID_2_)" transform="translate(-130.64 -14.465)" points="379.78 83.064 384.16 83.064 404.02 111.69 404.12 111.69 404.12 83.064 408.79 83.064 408.79 120.06 404.41 120.06 384.56 91.438 384.46 91.438 384.46 120.06 379.78 120.06"/><polygon id="polygon6243" clip-path="url(#SVGID_2_)" transform="translate(-130.64 -14.465)" points="434.54 87.446 425.29 87.446 425.29 120.06 420.62 120.06 420.62 87.446 411.37 87.446 411.37 83.064 434.54 83.064"/><polygon id="polygon6285" clip-path="url(#SVGID_2_)" transform="translate(-130.64 -14.465)" points="469.98 115.68 484.44 115.68 484.44 120.06 465.31 120.06 465.31 83.064 484.44 83.064 484.44 87.445 469.98 87.445 469.98 99.177 484.44 99.177 484.44 103.56 469.98 103.56"/><path id="path6327" d="m442.3 101.42c0.633 0.049 1.314 0.049 4.089 0.049 7.155 0 9.638-3.115 9.638-7.155 0-4.332-2.97-7.154-7.836-7.154h-5.891v14.26zm0 2.872v15.771h-4.673v-36.993h10.66c7.107 0 12.412 4.089 12.412 11.194 0 6.62-5.208 10.709-11.244 11.049l14.408 14.749h-6.571l-14.992-15.77z" clip-path="url(#SVGID_79_)" transform="translate(-130.64 -14.465)"/></g>
</svg>
