<?xml version="1.0" encoding="UTF-8" standalone="no"?>
<svg id="Layer_1" xmlns:rdf="http://www.w3.org/1999/02/22-rdf-syntax-ns#" xmlns="http://www.w3.org/2000/svg" enable-background="new 0 0 504 144" xmlns:osb="http://www.openswatchbook.org/uri/2009/osb" xml:space="preserve" height="117" viewBox="0 0 371 117" width="371" version="1.1" y="0px" x="0px" xmlns:cc="http://creativecommons.org/ns#" xmlns:xlink="http://www.w3.org/1999/xlink" xmlns:dc="http://purl.org/dc/elements/1.1/"><defs><linearGradient id="linearGradient11359" osb:paint="solid"><stop id="stop11361" stop-color="#767676" offset="0"/></linearGradient><clipPath id="SVGID_4_">
			<use id="use3351" xlink:href="#SVGID_3_" height="100%" width="100%" y="0" x="0" overflow="visible"/>
		</clipPath><clipPath id="SVGID_16_">
			<use id="use3427" xlink:href="#SVGID_15_" height="100%" width="100%" y="0" x="0" overflow="visible"/>
		</clipPath><linearGradient id="linearGradient4356" y2="106.25" xlink:href="#linearGradient11359" gradientUnits="userSpaceOnUse" x2="486.88" y1="106.25" x1="129.91"/>
			<rect id="SVGID_3_" y="9.434" width="503.72" x="0" height="125.57"/>
			<rect id="SVGID_15_" y="9.434" width="503.72" x="0" height="125.57"/>
					</defs>
<g id="g5741" transform="translate(-129.91 -4.911)"><path id="path3495" d="m67.103 96.884c-1.682 4.588-2.525 9.749-2.525 13.186 0 8.597 3.367 13.185 9.261 13.185h0.42c5.472 0 19.784-4.018 38.306-21.21 1.618-1.507 3.36-3.207 5.16-5.019v-29.943c-4.397 4.284-9.472 8.096-14.421 11.465-12.208 8.026-26.521 14.899-36.201 18.336" clip-path="url(#SVGID_16_)" transform="translate(-51.188 -113.4)" fill="#7c6956"/><path id="path3529" d="m42.689 107.77c0-2.293 0.42-6.303 0.84-8.025-7.576 0.58-13.89 0-18.52-1.143-4.105-1.081-8.46-2.731-12.503-5.18v32.731h36.371c-4.186-4.1-6.188-10.232-6.188-17.812v-0.571z" clip-path="url(#SVGID_16_)" transform="translate(-51.188 -113.4)" fill="#7c6956"/><path id="path3563" d="m24.587 25.244c0 1.143-1.685 1.723-3.367 2.866-3.309 2.064-6.246 4.69-8.714 7.76v46.65c4.701 5.514 10.973 9.248 17.552 10.927 4.209 1.15 9.261 1.723 14.736 1.723 3.786-15.48 13.47-28.656 20.626-36.11 15.889-16.513 36.76-30.754 52.3-30.942v-7.178h-105.22v9.661c2.433-2.03 4.963-3.655 7.452-4.785 1.262-0.572 4.629-1.715 4.629-0.572" clip-path="url(#SVGID_16_)" transform="translate(-51.188 -113.4)" fill="#83d2e4"/><path id="path3597" d="m87.522 126.16h30.202v-21.866c-1.071 1.062-2.097 2.042-3.055 2.911-9.287 8.432-18.458 14.803-27.147 18.955" clip-path="url(#SVGID_16_)" transform="translate(-51.188 -113.4)" fill="#7c6956"/><path id="path3631" d="m115.51 43.589c0.42-5.16-1.262-8.025-5.051-8.025-3.79 0-10.104 5.731-18.522 16.622-6.734 8.596-17.26 26.933-22.309 38.395 8.419-2.865 19.784-9.167 28.623-17.193 10.522-9.741 16.835-21.782 17.259-29.799" clip-path="url(#SVGID_16_)" transform="translate(-51.188 -113.4)" fill="#83d2e4"/></g>
<g id="g7402" transform="matrix(.99865 0 0 .99865 0 -5.2921)"><g id="g5748" fill="#10335a" transform="translate(-129.91 -15.21)"><path id="path3633" d="m140.5 49.249c3.02 1.215 4.968 1.215 8.208 1.352 8.636 0.352 16.912-6.738 16.767-15.545-0.286-9.375-8.777-14.41-17.562-14.41h-17.205c0.219 0.066 1.511 0.999 2.017 1.974 0.435 0.729 0.652 1.281 0.652 2.071l0.066 44.864c0 0.854-0.217 1.562-0.718 2.206-0.506 0.843-1.939 1.704-2.086 1.772h12.668c-0.077 0-1.369-0.847-1.872-1.56-0.579-0.712-0.935-1.426-0.935-2.419v-20.305zm4.675-1.492c-1.798-0.14-3.025-0.14-4.747-0.637l0.072-22.854h7.269c5.901 0 10.01 3.626 10.293 11.075 0.217 6.667-4.891 12.918-12.887 12.416" clip-path="url(#SVGID_16_)"/><path id="path3635" d="m173.11 73.538c-0.066 0-1.604-0.575-1.938-1.348-0.288-0.799 0.049-1.409 0.334-2.199l3.98-9.468h16.037l3.531 8.519c0.394 1.074 0.966 1.857 0.512 2.921-0.455 0.899-2.047 1.575-2.107 1.575h11.829c-0.113 0-1.879-0.795-2.677-1.629-0.687-0.74-0.905-1.293-1.313-2.241l-16.32-38.991-16.71 39.094c-0.395 0.95-0.674 1.576-1.413 2.362-0.566 0.609-1.706 1.334-1.821 1.404h8.081zm17.282-15.715h-13.762l6.71-16.536 7.052 16.536z" clip-path="url(#SVGID_16_)"/><path id="path3637" d="m223.98 53.801h3.528c0.965 0 2.107 0.217 3.07 0.9 0.679 0.383 1.142 0.835 1.532 1.512l9.444 14.978c0.34 0.611 0.678 0.949 1.253 1.396 0.676 0.503 1.189 0.733 1.987 0.951h7.395c-1.142-0.386-1.885-0.73-3.021-1.341-1.36-0.795-4.943-6.003-7.17-10.039-3.569-6.567-7.721-9.655-7.896-9.826 0.457-0.106 8.817-2.3 8.588-10.311-0.228-7.512-7.617-10.203-12.741-10.203h-13.471c0.112 0 1.248 0.77 1.657 1.565 0.276 0.555 0.5 0.96 0.5 1.626l-0.057 35.388c0 0.676-0.221 1.122-0.567 1.633-0.398 0.724-1.533 1.4-1.594 1.508h9.949s-1.027-0.676-1.477-1.237c-0.453-0.608-0.908-1.109-0.908-1.958v-16.542zm5.518-2.529c-0.57 0.231-5.343 0.11-5.518 0.06l0.062-17.339h3.69c7.734 0 17.283 11.055 1.766 17.279" clip-path="url(#SVGID_16_)"/><path id="path3639" d="m276.47 34.558v35.779c0 0.849 0.334 1.35 0.737 1.971 0.448 0.555 1.474 1.226 1.536 1.226h-10.467c0.116-0.098 1.246-0.671 1.703-1.393 0.283-0.559 0.512-1.003 0.512-1.743v-35.894l-9.602 0.277c-1.145 0-2.058 0-2.96 0.731-0.854 0.624-1.366 2.356-1.366 2.417l-0.062-6.011h33.845v5.785c0-0.051-0.577-1.458-1.315-2.018-0.739-0.619-1.367-0.841-2.271-0.841l-10.29-0.286z" clip-path="url(#SVGID_16_)"/><path id="path3641" d="m320.5 70.066c0 0.84 0.172 1.743 0.507 2.188 0.582 0.729 2.168 1.278 2.278 1.278h-11.545c0.126-0.054 1.539-0.609 2.105-1.343 0.462-0.612 0.804-1.178 0.804-1.96l0.04-18.122-10.452-16.375c-0.572-0.889-0.962-1.397-1.764-2.124-0.966-0.842-2.734-1.744-2.844-1.789h12.236c-0.126 0-1.766 0.665-2.113 1.563-0.287 0.902 0.22 1.626 0.739 2.471l8.751 13.625 6.943-13.07c0.571-1.062 1.312-2.466 1.257-2.961-0.232-0.855-0.918-1.349-1.723-1.583h8.324c-1.147 0.284-1.723 0.788-2.518 1.518-0.724 0.672-1.079 1.286-1.525 2.19l-9.502 16.652v17.842z" clip-path="url(#SVGID_16_)"/><path id="path3643" d="m346.78 73.56c0.065-0.15 1.499-1 2.019-1.917 0.354-0.647 0.643-1.217 0.643-2.066v-44.94c0-0.861-0.288-1.408-0.727-2.058-0.501-0.918-1.869-1.846-2.013-1.846h12.673c-0.076 0-1.373 0.713-1.875 1.495-0.576 0.781-0.933 1.418-0.933 2.409v44.8h17.346c1.583 0 2.597-0.492 3.963-1.354 1.293-0.772 2.023-1.478 2.741-2.836l-1.153 8.313h-32.684z" clip-path="url(#SVGID_16_)"/><path id="path3645" d="m400.17 70.397c0 0.788 0.334 1.284 0.797 1.91 0.452 0.555 1.477 1.226 1.477 1.226h-9.948c0.066-0.098 1.183-0.773 1.585-1.51 0.352-0.509 0.579-0.95 0.579-1.626v-35.497c0-0.677-0.182-1.07-0.524-1.626-0.393-0.789-1.471-1.454-1.573-1.454h9.882s-1.024 0.55-1.477 1.173c-0.463 0.616-0.797 1.113-0.797 1.907v35.497z" clip-path="url(#SVGID_16_)"/><path id="path3647" d="m435.21 34.558v35.779c0 0.849 0.35 1.35 0.756 1.971 0.453 0.555 1.46 1.226 1.531 1.226h-10.472c0.117-0.098 1.249-0.671 1.7-1.393 0.294-0.559 0.518-1.003 0.518-1.743v-35.894l-9.611 0.277c-1.143 0-2.039 0-2.948 0.731-0.862 0.624-1.368 2.356-1.368 2.417l-0.053-6.011h33.835v5.785c0-0.051-0.579-1.458-1.309-2.018-0.74-0.619-1.373-0.841-2.277-0.841l-10.302-0.286z" clip-path="url(#SVGID_16_)"/><path id="path3649" d="m477.96 49.142c0.565 0 1.137-0.277 1.594-0.615 0.562-0.335 0.843-0.73 1.074-1.345v6.448c-0.121-0.623-0.402-1.005-0.914-1.347-0.502-0.391-0.966-0.451-1.641-0.451h-10.355v18.46h13.424c1.421 0 2.382-0.285 3.527-1.126 1.134-0.791 1.816-1.626 2.208-2.972l-1.18 7.344h-26.11c0.114-0.107 1.254-0.73 1.824-1.341 0.562-0.619 0.8-1.232 0.8-2.077v-33.874c0-1.072-0.288-1.96-0.911-2.63-0.684-0.848-2.095-1.75-2.214-1.797h24.896v5.149c-0.459-0.771-0.916-1.175-1.698-1.681-0.801-0.442-1.436-0.671-2.343-0.671h-12.157v14.526h10.176z" clip-path="url(#SVGID_16_)"/><path id="path3651" d="m492.47 31.556v6.981h1.21v-2.74h0.975c0.665 0 1.121 0.08 1.382 0.224 0.445 0.268 0.67 0.79 0.67 1.594v0.554l0.028 0.227c0.009 0.029 0.02 0.046 0.02 0.072 0.01 0.024 0.016 0.05 0.019 0.069h1.147l-0.039-0.09c-0.046-0.051-0.066-0.168-0.069-0.357-0.016-0.18-0.02-0.357-0.02-0.521v-0.5c0-0.358-0.131-0.727-0.384-1.09-0.253-0.371-0.645-0.6-1.186-0.696 0.43-0.062 0.77-0.177 1.007-0.328 0.438-0.3 0.69-0.754 0.69-1.376 0-0.882-0.356-1.47-1.098-1.767-0.402-0.174-1.03-0.256-1.904-0.256h-2.448zm4.236 2.136c0 0.536-0.243 0.885-0.721 1.076-0.275 0.101-0.663 0.155-1.183 0.155h-1.123v-2.481h1.043c0.707 0 1.202 0.078 1.511 0.255 0.316 0.166 0.473 0.505 0.473 0.995m4.698 1.36c0-1.752-0.614-3.24-1.86-4.473-1.24-1.233-2.751-1.854-4.507-1.854-1.755 0-3.244 0.621-4.491 1.854-1.241 1.238-1.859 2.735-1.859 4.473 0 1.77 0.609 3.287 1.833 4.516 1.241 1.253 2.749 1.868 4.518 1.868 1.756 0 3.267-0.615 4.507-1.868 1.245-1.239 1.859-2.752 1.859-4.516m-6.367-5.446c1.521 0 2.813 0.533 3.888 1.601 1.07 1.064 1.604 2.361 1.604 3.865 0 1.514-0.533 2.81-1.604 3.892-1.074 1.067-2.355 1.601-3.888 1.601-1.526 0-2.811-0.534-3.89-1.601-1.044-1.082-1.59-2.378-1.59-3.892 0-1.504 0.546-2.801 1.601-3.865 1.091-1.068 2.366-1.601 3.879-1.601" clip-path="url(#SVGID_16_)"/></g><g fill="url(#linearGradient4356)"><path id="path3385" d="m151.33 95.205c-1.978-3.153-5.38-4.624-8.608-4.624-7.57 0-12.812 6.641-12.812 15.888 0 7.48 4.826 15.385 12.637 15.385 5.624 0 8.575-3.993 9.304-5.213l-2.812-2.563c-1.458 2.479-3.611 3.993-6.423 3.993-5.727 0-9.165-5.338-9.165-11.602 0-6.767 3.647-12.104 9.165-12.104 2.257 0 4.547 1.219 5.937 3.404zm3.636 25.892h16.49v-3.783h-13.158v-9.541h11.666v-3.783h-11.666v-8.868h12.533v-3.782h-15.865zm19.844 0h3.332v-24.464h0.072l13.678 24.464h4.234v-29.758h-3.332v24.461h-0.069l-13.539-24.461h-4.376zm31.406 0h3.331v-25.976h7.917v-3.782h-19.165v3.782h7.917zm13.875 0h3.334v-13.115h3.714l6.249 13.115h4.165l-6.978-13.577c3.714-0.504 6.042-4.077 6.042-7.861 0-3.739-1.597-8.319-7.881-8.319h-8.645zm3.334-26.229h4.373c2.638 0 5.278 0.757 5.278 4.79 0 4.037-2.64 4.794-5.278 4.794h-4.373zm17.878 26.229h16.49v-3.783h-13.156v-9.541h11.663v-3.783h-11.663v-8.868h12.533v-3.782h-15.867z" clip-path="url(#SVGID_4_)" transform="translate(-129.91 -15.21)"/><path id="path3461" d="m440.48 100.12h3.725v21.792h-3.725v-21.792zm1.863-9.537c1.449 0 2.607 1.171 2.607 2.635s-1.158 2.635-2.607 2.635-2.608-1.171-2.608-2.635 1.159-2.635 2.608-2.635" clip-path="url(#SVGID_16_)" transform="translate(-129.91 -15.21)"/><path id="path3685" d="m343.73 111.59c0-3.975 2.46-6.834 6.396-6.834 3.938 0 6.397 2.859 6.397 6.834 0 3.977-2.46 6.836-6.397 6.836-3.936 0-6.396-2.86-6.396-6.836m-3.933 0c0 5.717 4.55 10.316 10.329 10.316 5.78 0 10.331-4.6 10.331-10.316 0-5.715-4.551-10.312-10.331-10.312-5.779-0.001-10.329 4.597-10.329 10.312" clip-path="url(#SVGID_16_)" transform="translate(-129.91 -15.21)"/><path id="path3719" d="m362.91 121.91h3.688v-9.858c0-4.309 1.971-6.297 5.578-6.297 0.573 0 1.188 0.126 1.801 0.29l0.165-4.019c-0.492-0.165-1.065-0.248-1.642-0.248-2.418 0-4.875 1.45-5.817 3.522h-0.085v-3.025h-3.688v19.635z" clip-path="url(#SVGID_16_)" transform="translate(-129.91 -15.21)"/><path id="path3753" d="m375.5 121.91h3.687v-10.188c0-4.435 2.38-6.463 5.045-6.463 3.565 0 4.096 2.65 4.096 6.379v10.272h3.692v-10.729c0-3.479 1.394-5.923 4.96-5.923 3.567 0 4.181 2.734 4.181 5.717v10.935h3.689v-11.432c0-4.391-1.394-8.7-7.379-8.7-2.337 0-4.877 1.243-6.149 3.646-1.227-2.403-3.197-3.646-6.066-3.646-3.482 0-5.862 2.403-6.232 3.563h-0.08v-3.066h-3.442v19.635z" clip-path="url(#SVGID_16_)" transform="translate(-129.91 -15.21)"/><path id="path3787" d="m409.45 106.5c1.354-1.036 2.708-2.236 5.536-2.236 3.155 0 4.632 2.113 4.632 4.142v0.829h-2.704c-5.905 0-10.702 1.74-10.702 6.794 0 3.81 3.118 5.883 6.726 5.883 2.948 0 5.164-0.953 6.804-3.48h0.083c0 0.995 0.039 1.986 0.124 2.982h3.277c-0.125-1.035-0.165-2.195-0.165-3.562v-10.026c0-3.395-2.377-6.544-8.118-6.544-2.702 0-5.654 0.953-7.702 2.899l2.209 2.319zm10.168 5.468v1.243c0 2.651-1.438 5.717-5.533 5.717-2.542 0-4.181-0.953-4.181-3.189 0-3.147 4.262-3.771 7.747-3.771h1.967z" clip-path="url(#SVGID_16_)" transform="translate(-129.91 -15.21)"/><path id="path3821" d="m437.82 101.78h-5.288v-5.507h-3.688v5.508h-4.264v3.232h4.264v10.229c0 3.148 0.079 6.671 5.78 6.671 0.736 0 2.457-0.166 3.32-0.664v-3.395c-0.738 0.455-1.764 0.579-2.624 0.579-2.789 0-2.789-2.319-2.789-4.515v-8.905h5.288v-3.233z" clip-path="url(#SVGID_16_)" transform="translate(-129.91 -15.21)"/><path id="path3855" d="m469.66 121.91h3.69v-10.108c0-4.556 2.334-6.543 5.41-6.543 2.338 0 4.428 1.364 4.428 5.054v11.598h3.688v-12.635c0-5.218-3.279-7.497-7.051-7.497-2.994 0-5.453 1.45-6.396 3.522h-0.079v-3.025h-3.69v19.634z" clip-path="url(#SVGID_16_)" transform="translate(-129.91 -15.21)"/><path id="path3889" d="m450.67 111.59c0-3.975 2.46-6.834 6.396-6.834s6.396 2.859 6.396 6.834c0 3.977-2.46 6.836-6.396 6.836s-6.396-2.86-6.396-6.836m-3.934 0c0 5.717 4.55 10.316 10.33 10.316s10.331-4.6 10.331-10.316c0-5.715-4.551-10.312-10.331-10.312s-10.33 4.597-10.33 10.312" clip-path="url(#SVGID_16_)" transform="translate(-129.91 -15.21)"/></g><g fill="#767676"><path id="path4397" d="m161.87 106.18h-3.3952v-1.976c-0.97942 0.80274-1.9588 1.4202-3.0688 1.8525-1.0447 0.43222-2.1547 0.6792-3.3952 0.6792-2.4158 0-4.3746-0.92622-5.8111-2.6551-1.3712-1.729-2.0894-4.1989-2.0894-7.2863 0-1.6054 0.26123-3.0873 0.71823-4.3223 0.52235-1.2967 1.1753-2.3464 2.0241-3.2727 0.78352-0.86447 1.7629-1.4819 2.8076-1.9759 1.11-0.43223 2.2853-0.67922 3.3952-0.67922 1.11 0 2.0241 0.1235 2.8729 0.30873 0.78352 0.24699 1.6323 0.55573 2.5464 0.98795v-8.2742h3.3952v26.613zm-3.3952-4.6929v-10.991c-0.91411-0.37049-1.6976-0.61748-2.4159-0.80272-0.71824-0.12349-1.5671-0.18526-2.4159-0.18526-1.8935 0-3.3952 0.61748-4.4399 1.8524-1.0447 1.2967-1.567 3.0257-1.567 5.372 0 2.2229 0.39175 3.9519 1.2406 5.1868 0.78351 1.1732 2.0894 1.729 3.9176 1.729 0.97937 0 1.9588-0.18528 2.9382-0.6175 0.97941-0.37049 1.8935-0.92624 2.7423-1.5437z"/><path id="path4399" d="m181.27 96.977h-14.887c0 1.1732 0.19592 2.1612 0.58766 3.0874 0.39175 0.86446 0.84878 1.5437 1.5017 2.0994 0.65294 0.55574 1.3712 0.98799 2.22 1.235 0.9141 0.30875 1.8282 0.43224 2.8728 0.43224 1.3712 0 2.7423-0.24705 4.1788-0.80273 1.3712-0.49397 2.3506-0.98798 2.9382-1.5437h0.19593v3.5196c-1.11 0.49398-2.2853 0.86446-3.5259 1.1732-1.1753 0.30872-2.4159 0.43222-3.7217 0.43222-3.3952 0-6.007-0.86448-7.9005-2.5317-1.8282-1.729-2.8076-4.1989-2.8076-7.3481 0-3.0873 0.9141-5.619 2.7423-7.4097 1.7629-1.8524 4.1788-2.7786 7.117-2.7786 2.677 0 4.8316 0.74097 6.2681 2.2846 1.5018 1.482 2.22 3.6431 2.22 6.4218v1.7289zm-3.2647-2.4698c-0.0653-1.6672-0.52234-3.0257-1.3712-3.9519-0.91411-0.92622-2.22-1.3585-4.0481-1.3585-1.8282 0-3.2647 0.49398-4.3747 1.5437-1.0447 0.98796-1.6976 2.2847-1.8282 3.7666h11.622z"/><text id="text4367" style="word-spacing:0px;letter-spacing:0px" xml:space="preserve" font-size="40.054px" y="106.2869" x="197.38989" font-family="sans-serif" line-height="125%"><tspan id="tspan4369" x="197.38989" y="106.2869">f</tspan></text>
</g></g></svg>
