<?xml version="1.0" encoding="UTF-8" standalone="no"?>
<svg id="Layer_1" xmlns:rdf="http://www.w3.org/1999/02/22-rdf-syntax-ns#" xmlns="http://www.w3.org/2000/svg" version="1.1" xml:space="preserve" height="31.29" viewBox="0 0 356.4841 31.289701" width="356.48" enable-background="new 0 0 504 144" y="0px" x="0px" xmlns:cc="http://creativecommons.org/ns#" xmlns:xlink="http://www.w3.org/1999/xlink" xmlns:dc="http://purl.org/dc/elements/1.1/"><defs id="defs3"><clipPath id="SVGID_2_">
		<use id="use3343" xlink:href="#SVGID_1_" height="100%" width="100%" y="0" x="0" overflow="visible"/>
	</clipPath><clipPath id="SVGID_4_">
			<use id="use3351" xlink:href="#SVGID_3_" height="100%" width="100%" y="0" x="0" overflow="visible"/>
		</clipPath><clipPath id="SVGID_16_">
			<use id="use3427" xlink:href="#SVGID_15_" height="100%" width="100%" y="0" x="0" overflow="visible"/>
		</clipPath><rect id="SVGID_1_" y="9.434" width="503.72" height="125.57" x="0"/><rect id="SVGID_3_" y="9.434" width="503.72" height="125.57" x="0"/><rect id="SVGID_15_" y="9.434" width="503.72" height="125.57" x="0"/></defs>
<g id="g5760" fill="#fff" transform="matrix(.99865 0 0 .99865 -129.73 -90.459)"><path id="path3385" d="m151.33 95.205c-1.978-3.153-5.38-4.624-8.608-4.624-7.57 0-12.812 6.641-12.812 15.888 0 7.48 4.826 15.385 12.637 15.385 5.624 0 8.575-3.993 9.304-5.213l-2.812-2.563c-1.458 2.479-3.611 3.993-6.423 3.993-5.727 0-9.165-5.338-9.165-11.602 0-6.767 3.647-12.104 9.165-12.104 2.257 0 4.547 1.219 5.937 3.404l2.777-2.564zm3.636 25.892h16.49v-3.783h-13.158v-9.541h11.666v-3.783h-11.666v-8.868h12.533v-3.782h-15.865v29.757zm19.844 0h3.332v-24.464h0.072l13.678 24.464h4.234v-29.758h-3.332v24.461h-0.069l-13.539-24.461h-4.376v29.758zm31.406 0h3.331v-25.976h7.917v-3.782h-19.165v3.782h7.917v25.976zm13.875 0h3.334v-13.115h3.714l6.249 13.115h4.165l-6.978-13.577c3.714-0.504 6.042-4.077 6.042-7.861 0-3.739-1.597-8.319-7.881-8.319h-8.645v29.757zm3.334-26.229h4.373c2.638 0 5.278 0.757 5.278 4.79 0 4.037-2.64 4.794-5.278 4.794h-4.373v-9.584zm17.878 26.229h16.49v-3.783h-13.156v-9.541h11.663v-3.783h-11.663v-8.868h12.533v-3.782h-15.867v29.757zm30.306 0h8.021c8.783 0 13.468-7.272 13.468-14.879 0-5.508-2.531-14.879-12.912-14.879h-8.576v29.758zm3.333-25.976h4.999c7.985 0 9.616 7.312 9.616 11.097 0 7.354-4.79 11.096-10.415 11.096h-4.2v-22.193zm22.036 25.976h16.492v-3.783h-13.159v-9.541h11.664v-3.783h-11.664v-8.868h12.534v-3.782h-15.867v29.757z" clip-path="url(#SVGID_4_)"/><polygon id="polygon3419" clip-path="url(#SVGID_2_)" points="325.16 95.812 339.47 95.812 339.47 92.084 321.23 92.084 321.23 121.41 325.16 121.41 325.16 108.74 338.49 108.74 338.49 105.01 325.16 105.01"/><path id="path3461" d="m440.48 100.12h3.725v21.792h-3.725v-21.792zm1.863-9.537c1.449 0 2.607 1.171 2.607 2.635s-1.158 2.635-2.607 2.635-2.608-1.171-2.608-2.635 1.159-2.635 2.608-2.635" clip-path="url(#SVGID_16_)"/><path id="path3685" d="m343.73 111.59c0-3.975 2.46-6.834 6.396-6.834 3.938 0 6.397 2.859 6.397 6.834 0 3.977-2.46 6.836-6.397 6.836-3.936 0-6.396-2.86-6.396-6.836m-3.933 0c0 5.717 4.55 10.316 10.329 10.316 5.78 0 10.331-4.6 10.331-10.316 0-5.715-4.551-10.312-10.331-10.312-5.779-0.001-10.329 4.597-10.329 10.312" clip-path="url(#SVGID_16_)"/><path id="path3719" d="m362.91 121.91h3.688v-9.858c0-4.309 1.971-6.297 5.578-6.297 0.573 0 1.188 0.126 1.801 0.29l0.165-4.019c-0.492-0.165-1.065-0.248-1.642-0.248-2.418 0-4.875 1.45-5.817 3.522h-0.085v-3.025h-3.688v19.635z" clip-path="url(#SVGID_16_)"/><path id="path3753" d="m375.5 121.91h3.687v-10.188c0-4.435 2.38-6.463 5.045-6.463 3.565 0 4.096 2.65 4.096 6.379v10.272h3.692v-10.729c0-3.479 1.394-5.923 4.96-5.923 3.567 0 4.181 2.734 4.181 5.717v10.935h3.689v-11.432c0-4.391-1.394-8.7-7.379-8.7-2.337 0-4.877 1.243-6.149 3.646-1.227-2.403-3.197-3.646-6.066-3.646-3.482 0-5.862 2.403-6.232 3.563h-0.08v-3.066h-3.442v19.635z" clip-path="url(#SVGID_16_)"/><path id="path3787" d="m409.45 106.5c1.354-1.036 2.708-2.236 5.536-2.236 3.155 0 4.632 2.113 4.632 4.142v0.829h-2.704c-5.905 0-10.702 1.74-10.702 6.794 0 3.81 3.118 5.883 6.726 5.883 2.948 0 5.164-0.953 6.804-3.48h0.083c0 0.995 0.039 1.986 0.124 2.982h3.277c-0.125-1.035-0.165-2.195-0.165-3.562v-10.026c0-3.395-2.377-6.544-8.118-6.544-2.702 0-5.654 0.953-7.702 2.899l2.209 2.319zm10.168 5.468v1.243c0 2.651-1.438 5.717-5.533 5.717-2.542 0-4.181-0.953-4.181-3.189 0-3.147 4.262-3.771 7.747-3.771h1.967z" clip-path="url(#SVGID_16_)"/><path id="path3821" d="m437.82 101.78h-5.288v-5.507h-3.688v5.508h-4.264v3.232h4.264v10.229c0 3.148 0.079 6.671 5.78 6.671 0.736 0 2.457-0.166 3.32-0.664v-3.395c-0.738 0.455-1.764 0.579-2.624 0.579-2.789 0-2.789-2.319-2.789-4.515v-8.905h5.288v-3.233z" clip-path="url(#SVGID_16_)"/><path id="path3855" d="m469.66 121.91h3.69v-10.108c0-4.556 2.334-6.543 5.41-6.543 2.338 0 4.428 1.364 4.428 5.054v11.598h3.688v-12.635c0-5.218-3.279-7.497-7.051-7.497-2.994 0-5.453 1.45-6.396 3.522h-0.079v-3.025h-3.69v19.634z" clip-path="url(#SVGID_16_)"/><path id="path3889" d="m450.67 111.59c0-3.975 2.46-6.834 6.396-6.834s6.396 2.859 6.396 6.834c0 3.977-2.46 6.836-6.396 6.836s-6.396-2.86-6.396-6.836m-3.934 0c0 5.717 4.55 10.316 10.33 10.316s10.331-4.6 10.331-10.316c0-5.715-4.551-10.312-10.331-10.312s-10.33 4.597-10.33 10.312" clip-path="url(#SVGID_16_)"/></g></svg>
