<?xml version="1.0" encoding="utf-8"?>
<!-- Generator: Adobe Illustrator 16.0.3, SVG Export Plug-In . SVG Version: 6.00 Build 0)  -->
<!DOCTYPE svg PUBLIC "-//W3C//DTD SVG 1.1//EN" "http://www.w3.org/Graphics/SVG/1.1/DTD/svg11.dtd">
<svg version="1.1" id="Layer_1" xmlns="http://www.w3.org/2000/svg" xmlns:xlink="http://www.w3.org/1999/xlink" x="0px" y="0px"
	 width="488.901px" height="116.701px" viewBox="0 0 488.901 116.701" enable-background="new 0 0 488.901 116.701"
	 xml:space="preserve">
<polygon fill="#231F20" points="118.138,63.955 123.305,63.955 123.305,100.017 137.675,100.017 137.675,104.86 118.138,104.86 "/>
<g>
	<defs>
		<rect id="SVGID_1_" width="488.901" height="116.701"/>
	</defs>
	<clipPath id="SVGID_2_">
		<use xlink:href="#SVGID_1_"  overflow="visible"/>
	</clipPath>
	<path clip-path="url(#SVGID_2_)" fill="#231F20" d="M160.766,88.713c-0.484-4.629-4.252-8.019-9.257-8.019
		c-5.921,0-8.773,4.198-9.257,8.019H160.766z M165.018,99.425c-3.767,4.197-7.751,6.082-12.648,6.082
		c-9.957,0-15.286-7.213-15.286-14.694c0-7.965,5.706-14.639,14.479-14.639c8.665,0,14.693,6.619,14.693,16.522h-24.004
		c0.753,4.79,4.628,8.289,10.064,8.289c3.445,0,6.513-1.615,8.989-4.521L165.018,99.425z"/>
	<path clip-path="url(#SVGID_2_)" fill="#231F20" d="M181.221,90.06c-5.92,0-7.912,2.853-7.912,5.598s1.992,5.597,7.912,5.597
		c5.921,0,7.912-2.852,7.912-5.597S187.142,90.06,181.221,90.06 M188.972,86.076c0-4.629-4.629-5.651-8.397-5.651
		c-2.637,0-5.113,0.646-7.75,1.938l-2.099-4.036c4.252-1.777,7.589-2.153,10.119-2.153c6.728,0,12.971,2.853,12.971,9.526v19.161
		h-4.521v-3.015c-2.476,2.583-5.221,3.66-8.935,3.66c-6.835,0-12.217-3.821-12.217-10.064c0-5.113,4.359-9.634,12.163-9.634
		c2.961,0,6.082,0.86,8.666,3.176V86.076z"/>
	<path clip-path="url(#SVGID_2_)" fill="#231F20" d="M198.123,76.819h4.844v3.982h0.108c2.422-4.359,4.736-4.629,8.827-4.629v5.113
		c-0.7-0.161-1.454-0.27-2.207-0.27c-4.037,0-6.728,2.8-6.728,7.912v15.932h-4.844V76.819z"/>
	<path clip-path="url(#SVGID_2_)" fill="#231F20" d="M233.108,88.552c0-4.197-1.723-7.857-6.513-7.857
		c-4.521,0-7.266,3.067-7.266,8.396v15.771h-4.843V76.819h4.843v3.283h0.108c1.453-2.53,4.575-3.93,7.696-3.93
		c5.436,0,10.819,2.96,10.819,10.55v18.138h-4.844V88.552z"/>
	<path clip-path="url(#SVGID_2_)" fill="#231F20" d="M241.398,76.819h4.844v28.041h-4.844V76.819z M243.82,64.548
		c1.884,0,3.391,1.507,3.391,3.391s-1.507,3.391-3.391,3.391s-3.391-1.507-3.391-3.391S241.937,64.548,243.82,64.548"/>
	<path clip-path="url(#SVGID_2_)" fill="#231F20" d="M268.31,88.552c0-4.197-1.724-7.857-6.513-7.857
		c-4.521,0-7.267,3.067-7.267,8.396v15.771h-4.843V76.819h4.843v3.283h0.108c1.453-2.53,4.574-3.93,7.695-3.93
		c5.437,0,10.819,2.96,10.819,10.55v18.138h-4.844V88.552z"/>
	<path clip-path="url(#SVGID_2_)" fill="#231F20" d="M290.217,80.694c-6.566,0-10.28,5.221-10.28,9.903
		c0,6.458,5.06,10.333,10.118,10.333c5.544,0,10.064-4.467,10.064-10.064C300.119,85.215,295.49,80.694,290.217,80.694
		 M300.119,76.819h4.845v24.166c0,10.334-4.951,15.716-15.824,15.716c-4.951,0-9.312-1.83-13.078-6.028l3.875-3.068
		c2.96,3.715,6.404,4.845,9.312,4.845c7.535,0,10.871-3.768,10.871-10.012v-1.99h-0.106c-2.638,3.175-5.383,4.735-10.819,4.735
		c-9.418,0-14.424-8.072-14.424-14.585c0-8.128,6.674-14.425,14.585-14.425c4.146,0,8.343,1.722,10.658,5.06h0.106V76.819z"/>
	<path clip-path="url(#SVGID_2_)" fill="#7C6A56" d="M339.881,76.193c-2.629-2.386-5.987-3.797-9.541-3.797
		c-7.739,0-14.65,6.182-14.65,14.699c0,8.616,7.105,14.7,14.65,14.7c4.089,0,7.302-1.509,9.881-3.942l2.97,3.358
		c-3.31,3.018-8.177,4.964-12.851,4.964c-12.558,0-19.615-9.929-19.615-19.08c0-9.149,7.058-19.08,19.615-19.08
		c4.916,0,9.736,1.996,12.705,4.722L339.881,76.193z"/>
</g>
<polygon fill="#7C6A56" points="345.133,68.6 364.262,68.6 364.262,72.98 349.807,72.98 349.807,84.712 364.262,84.712 
	364.262,89.092 349.807,89.092 349.807,101.212 364.262,101.212 364.262,105.593 345.133,105.593 "/>
<polygon fill="#7C6A56" points="391.615,68.6 396.288,68.6 396.288,105.593 391.906,105.593 372.049,76.973 371.951,76.973 
	371.951,105.593 367.277,105.593 367.277,68.6 371.658,68.6 391.518,97.221 391.615,97.221 "/>
<polygon fill="#7C6A56" points="408.111,72.98 398.863,72.98 398.863,68.6 422.033,68.6 422.033,72.98 412.784,72.98 
	412.784,105.593 408.111,105.593 "/>
<polygon fill="#7C6A56" points="424.805,68.6 443.934,68.6 443.934,72.98 429.477,72.98 429.477,84.712 443.934,84.712 
	443.934,89.092 429.477,89.092 429.477,101.212 443.934,101.212 443.934,105.593 424.805,105.593 "/>
<g>
	<defs>
		<rect id="SVGID_3_" width="488.901" height="116.701"/>
	</defs>
	<clipPath id="SVGID_4_">
		<use xlink:href="#SVGID_3_"  overflow="visible"/>
	</clipPath>
	<path clip-path="url(#SVGID_4_)" fill="#7C6A56" d="M452.789,86.95c0.633,0.049,1.314,0.049,4.089,0.049
		c7.155,0,9.638-3.115,9.638-7.155c0-4.332-2.97-7.154-7.836-7.154h-5.891V86.95z M452.789,89.822v15.771h-4.673V68.6h10.659
		c7.107,0,12.412,4.09,12.412,11.195c0,6.62-5.207,10.709-11.244,11.049l14.408,14.749h-6.57L452.789,89.822z"/>
	<path clip-path="url(#SVGID_4_)" fill="#7C6A56" d="M54.596,75.944c-1.682,4.588-2.525,9.749-2.525,13.186
		c0,8.596,3.367,13.185,9.261,13.185h0.42c5.472,0,19.784-4.018,38.306-21.21c1.618-1.508,3.36-3.207,5.16-5.019V46.144
		c-4.397,4.283-9.472,8.096-14.421,11.465C78.589,65.634,64.276,72.507,54.596,75.944"/>
	<path clip-path="url(#SVGID_4_)" fill="#7C6A56" d="M30.183,86.835c0-2.293,0.42-6.303,0.84-8.025c-7.576,0.58-13.89,0-18.52-1.143
		C8.398,76.586,4.043,74.936,0,72.486v32.732h36.371c-4.186-4.1-6.188-10.233-6.188-17.812V86.835z"/>
	<path clip-path="url(#SVGID_4_)" fill="#82D1E3" d="M12.081,4.305c0,1.143-1.685,1.723-3.367,2.865
		C5.405,9.234,2.468,11.86,0,14.931v46.65c4.701,5.514,10.973,9.248,17.552,10.926c4.209,1.151,9.261,1.724,14.736,1.724
		c3.786-15.48,13.47-28.656,20.626-36.11c15.889-16.513,36.76-30.754,52.304-30.941V0H0v9.661c2.433-2.03,4.963-3.655,7.452-4.785
		C8.714,4.305,12.081,3.161,12.081,4.305"/>
	<path clip-path="url(#SVGID_4_)" fill="#7C6A56" d="M75.016,105.219h30.202V83.353c-1.071,1.062-2.097,2.042-3.055,2.911
		C92.875,94.695,83.705,101.066,75.016,105.219"/>
	<path clip-path="url(#SVGID_4_)" fill="#82D1E3" d="M103.005,22.649c0.42-5.16-1.262-8.025-5.051-8.025
		c-3.79,0-10.104,5.731-18.522,16.622c-6.734,8.596-17.26,26.933-22.309,38.395c8.419-2.864,19.784-9.167,28.623-17.192
		C96.27,42.708,102.583,30.666,103.005,22.649"/>
	<path clip-path="url(#SVGID_4_)" fill="#10345A" d="M127.999,28.604c3.02,1.215,4.968,1.215,8.208,1.352
		c8.636,0.352,16.912-6.738,16.767-15.545C152.688,5.035,144.197,0,135.412,0h-17.205c0.219,0.066,1.511,0.999,2.017,1.974
		c0.435,0.729,0.652,1.281,0.652,2.071l0.066,44.864c0,0.854-0.217,1.562-0.718,2.206c-0.506,0.843-1.939,1.704-2.086,1.772h12.668
		c-0.077,0-1.369-0.847-1.872-1.56c-0.579-0.712-0.935-1.426-0.935-2.419V28.604z M132.674,27.112
		c-1.798-0.141-3.025-0.141-4.747-0.638l0.072-22.854h7.269c5.901,0,10.01,3.626,10.293,11.075
		C145.778,21.363,140.67,27.614,132.674,27.112"/>
	<path clip-path="url(#SVGID_4_)" fill="#10345A" d="M160.608,52.894c-0.066,0-1.604-0.576-1.938-1.349
		c-0.288-0.799,0.049-1.409,0.334-2.199l3.98-9.468h16.037l3.531,8.52c0.394,1.073,0.966,1.856,0.512,2.92
		c-0.455,0.899-2.047,1.576-2.107,1.576h11.829c-0.113,0-1.879-0.796-2.677-1.63c-0.687-0.739-0.905-1.293-1.313-2.24
		l-16.317-38.991l-16.718,39.094c-0.395,0.95-0.674,1.576-1.413,2.362c-0.566,0.609-1.706,1.334-1.821,1.405H160.608z
		 M177.889,37.178h-13.762l6.71-16.536L177.889,37.178z"/>
	<path clip-path="url(#SVGID_4_)" fill="#10345A" d="M211.479,33.156h3.528c0.965,0,2.107,0.217,3.07,0.899
		c0.679,0.384,1.142,0.835,1.532,1.513l9.444,14.978c0.34,0.611,0.678,0.949,1.253,1.396c0.676,0.503,1.189,0.732,1.987,0.95h7.395
		c-1.142-0.386-1.885-0.73-3.022-1.341c-1.36-0.795-4.943-6.003-7.17-10.039c-3.569-6.566-7.721-9.654-7.896-9.826
		c0.457-0.105,8.817-2.3,8.588-10.311c-0.228-7.512-7.617-10.203-12.741-10.203h-13.471c0.112,0,1.248,0.771,1.657,1.565
		c0.276,0.555,0.5,0.96,0.5,1.626l-0.057,35.388c0,0.676-0.221,1.122-0.567,1.633c-0.398,0.725-1.533,1.4-1.594,1.508h9.949
		c0,0-1.027-0.676-1.477-1.237c-0.453-0.608-0.908-1.109-0.908-1.958V33.156z M216.997,30.627c-0.57,0.231-5.343,0.11-5.518,0.06
		l0.062-17.339h3.69C222.964,13.348,232.514,24.403,216.997,30.627"/>
	<path clip-path="url(#SVGID_4_)" fill="#10345A" d="M263.965,13.912v35.779c0,0.849,0.334,1.35,0.738,1.971
		c0.448,0.555,1.473,1.226,1.536,1.226h-10.467c0.116-0.098,1.245-0.671,1.702-1.393c0.283-0.558,0.513-1.003,0.513-1.743V13.859
		l-9.603,0.276c-1.144,0-2.057,0-2.959,0.731c-0.854,0.624-1.367,2.356-1.367,2.417l-0.062-6.011h33.845v5.785
		c0-0.052-0.576-1.458-1.314-2.019c-0.74-0.619-1.367-0.841-2.271-0.841L263.965,13.912z"/>
	<path clip-path="url(#SVGID_4_)" fill="#10345A" d="M307.998,49.421c0,0.841,0.172,1.743,0.508,2.188
		c0.582,0.729,2.168,1.279,2.278,1.279h-11.545c0.126-0.055,1.539-0.61,2.104-1.344c0.463-0.611,0.805-1.178,0.805-1.96
		l0.039-18.122l-10.451-16.375c-0.573-0.889-0.962-1.396-1.764-2.124c-0.967-0.842-2.734-1.743-2.845-1.789h12.237
		c-0.126,0-1.766,0.665-2.114,1.563c-0.286,0.902,0.22,1.626,0.74,2.471l8.751,13.625l6.943-13.069
		c0.57-1.063,1.312-2.467,1.257-2.961c-0.233-0.855-0.918-1.35-1.724-1.583h8.324c-1.146,0.283-1.722,0.787-2.517,1.518
		c-0.724,0.672-1.079,1.286-1.526,2.19l-9.502,16.651V49.421z"/>
	<path clip-path="url(#SVGID_4_)" fill="#10345A" d="M334.275,52.915c0.066-0.151,1.5-1,2.02-1.917
		c0.354-0.648,0.642-1.218,0.642-2.067V3.991c0-0.86-0.288-1.407-0.726-2.058c-0.502-0.918-1.869-1.846-2.014-1.846h12.674
		c-0.076,0-1.373,0.713-1.875,1.495c-0.576,0.78-0.934,1.418-0.934,2.408v44.801h17.346c1.584,0,2.598-0.493,3.963-1.355
		c1.293-0.771,2.023-1.477,2.742-2.836l-1.154,8.314H334.275z"/>
	<path clip-path="url(#SVGID_4_)" fill="#10345A" d="M387.666,49.752c0,0.788,0.334,1.284,0.798,1.91
		c0.452,0.555,1.476,1.226,1.476,1.226h-9.947c0.066-0.098,1.183-0.773,1.584-1.51c0.353-0.509,0.58-0.95,0.58-1.626V14.255
		c0-0.677-0.182-1.069-0.524-1.626c-0.394-0.789-1.472-1.454-1.573-1.454h9.881c0,0-1.023,0.55-1.476,1.173
		c-0.464,0.616-0.798,1.113-0.798,1.907V49.752z"/>
	<path clip-path="url(#SVGID_4_)" fill="#10345A" d="M422.705,13.912v35.779c0,0.849,0.35,1.35,0.756,1.971
		c0.453,0.555,1.459,1.226,1.53,1.226h-10.471c0.116-0.098,1.249-0.671,1.7-1.393c0.294-0.558,0.518-1.003,0.518-1.743V13.859
		l-9.611,0.276c-1.143,0-2.039,0-2.949,0.731c-0.861,0.624-1.367,2.356-1.367,2.417l-0.053-6.011h33.834v5.785
		c0-0.052-0.578-1.458-1.309-2.019c-0.74-0.619-1.373-0.841-2.277-0.841L422.705,13.912z"/>
	<path clip-path="url(#SVGID_4_)" fill="#10345A" d="M465.459,28.496c0.565,0,1.137-0.277,1.594-0.615
		c0.562-0.335,0.843-0.729,1.074-1.345v6.448c-0.121-0.623-0.402-1.005-0.914-1.348c-0.502-0.391-0.967-0.45-1.641-0.45h-10.355
		v18.461h13.424c1.421,0,2.382-0.286,3.527-1.126c1.133-0.791,1.816-1.626,2.207-2.973l-1.179,7.345h-26.11
		c0.113-0.108,1.254-0.731,1.823-1.342c0.562-0.619,0.8-1.232,0.8-2.077V15.6c0-1.071-0.287-1.96-0.91-2.63
		c-0.684-0.848-2.096-1.75-2.215-1.797h24.897v5.149c-0.459-0.771-0.916-1.175-1.699-1.682c-0.8-0.441-1.435-0.671-2.342-0.671
		h-12.158v14.526H465.459z"/>
	<path clip-path="url(#SVGID_4_)" fill="#10345A" d="M479.967,10.911v6.98h1.21v-2.739h0.975c0.665,0,1.121,0.079,1.382,0.224
		c0.445,0.268,0.669,0.79,0.669,1.594v0.554l0.029,0.228c0.009,0.029,0.019,0.046,0.019,0.072c0.011,0.023,0.017,0.05,0.02,0.068
		h1.146l-0.039-0.09c-0.046-0.051-0.065-0.168-0.068-0.356c-0.017-0.181-0.021-0.357-0.021-0.521v-0.5
		c0-0.358-0.13-0.727-0.383-1.09c-0.253-0.371-0.645-0.601-1.186-0.696c0.43-0.062,0.77-0.177,1.007-0.328
		c0.438-0.3,0.689-0.754,0.689-1.376c0-0.882-0.355-1.47-1.097-1.767c-0.403-0.174-1.031-0.256-1.905-0.256H479.967z
		 M484.202,13.047c0,0.536-0.243,0.885-0.72,1.076c-0.276,0.101-0.663,0.155-1.184,0.155h-1.122v-2.481h1.043
		c0.707,0,1.201,0.078,1.511,0.255C484.045,12.218,484.202,12.557,484.202,13.047 M488.901,14.407c0-1.752-0.615-3.24-1.861-4.474
		c-1.239-1.232-2.751-1.854-4.506-1.854s-3.245,0.621-4.491,1.854c-1.242,1.238-1.859,2.735-1.859,4.474
		c0,1.77,0.609,3.287,1.832,4.516c1.242,1.253,2.75,1.868,4.519,1.868c1.755,0,3.267-0.615,4.506-1.868
		C488.286,17.684,488.901,16.171,488.901,14.407 M482.534,8.961c1.521,0,2.813,0.533,3.887,1.601
		c1.071,1.064,1.604,2.361,1.604,3.865c0,1.514-0.533,2.811-1.604,3.893c-1.073,1.066-2.354,1.601-3.887,1.601
		c-1.527,0-2.812-0.534-3.89-1.601c-1.045-1.082-1.59-2.379-1.59-3.893c0-1.504,0.545-2.801,1.601-3.865
		C479.745,9.494,481.021,8.961,482.534,8.961"/>
</g>
</svg>
