<?xml version="1.0" encoding="utf-8"?>
<!-- Generator: Adobe Illustrator 16.0.3, SVG Export Plug-In . SVG Version: 6.00 Build 0)  -->
<!DOCTYPE svg PUBLIC "-//W3C//DTD SVG 1.1//EN" "http://www.w3.org/Graphics/SVG/1.1/DTD/svg11.dtd">
<svg version="1.1" id="Layer_1" xmlns="http://www.w3.org/2000/svg" xmlns:xlink="http://www.w3.org/1999/xlink" x="0px" y="0px"
	 width="370.763px" height="52.915px" viewBox="0 0 370.763 52.915" enable-background="new 0 0 370.763 52.915"
	 xml:space="preserve">
<path fill="#10345A" d="M9.861,28.604c3.02,1.215,4.968,1.215,8.208,1.352c8.636,0.352,16.912-6.738,16.767-15.545
	C34.55,5.035,26.059,0,17.274,0H0.069C0.288,0.066,1.58,0.999,2.086,1.974c0.435,0.729,0.652,1.281,0.652,2.071l0.066,44.864
	c0,0.854-0.217,1.562-0.718,2.206C1.58,51.958,0.147,52.819,0,52.888h12.668c-0.077,0-1.369-0.847-1.872-1.56
	c-0.579-0.712-0.935-1.426-0.935-2.419V28.604z M14.536,27.112c-1.798-0.141-3.025-0.141-4.747-0.638L9.861,3.621h7.269
	c5.901,0,10.01,3.626,10.293,11.075C27.64,21.363,22.532,27.614,14.536,27.112"/>
<path fill="#10345A" d="M42.47,52.894c-0.066,0-1.604-0.576-1.938-1.349c-0.288-0.799,0.049-1.409,0.334-2.199l3.98-9.468h16.037
	l3.531,8.52c0.394,1.073,0.966,1.856,0.512,2.92c-0.455,0.899-2.047,1.576-2.107,1.576h11.829c-0.113,0-1.879-0.796-2.677-1.63
	c-0.687-0.739-0.905-1.293-1.313-2.24L54.341,10.032L37.623,49.126c-0.395,0.95-0.674,1.576-1.413,2.362
	c-0.566,0.609-1.706,1.334-1.821,1.405H42.47z M59.751,37.178H45.989l6.71-16.536L59.751,37.178z"/>
<path fill="#10345A" d="M93.34,33.156h3.528c0.965,0,2.107,0.217,3.07,0.899c0.679,0.384,1.142,0.835,1.532,1.513l9.444,14.978
	c0.34,0.611,0.678,0.949,1.253,1.396c0.676,0.503,1.189,0.732,1.987,0.95h7.395c-1.142-0.386-1.885-0.73-3.022-1.341
	c-1.36-0.795-4.943-6.003-7.17-10.039c-3.569-6.566-7.721-9.654-7.896-9.826c0.457-0.105,8.817-2.3,8.588-10.311
	c-0.228-7.512-7.617-10.203-12.741-10.203H85.837c0.112,0,1.248,0.771,1.657,1.565c0.276,0.555,0.5,0.96,0.5,1.626l-0.057,35.388
	c0,0.676-0.221,1.122-0.567,1.633c-0.398,0.725-1.533,1.4-1.594,1.508h9.949c0,0-1.027-0.676-1.477-1.237
	c-0.453-0.608-0.908-1.109-0.908-1.958V33.156z M98.858,30.627c-0.57,0.231-5.343,0.11-5.518,0.06l0.062-17.339h3.69
	C104.826,13.348,114.375,24.403,98.858,30.627"/>
<path fill="#10345A" d="M145.827,13.912v35.779c0,0.849,0.334,1.35,0.738,1.971c0.448,0.555,1.473,1.226,1.536,1.226h-10.467
	c0.116-0.098,1.245-0.671,1.702-1.393c0.283-0.558,0.513-1.003,0.513-1.743V13.859l-9.603,0.276c-1.144,0-2.057,0-2.959,0.731
	c-0.854,0.624-1.367,2.356-1.367,2.417l-0.062-6.011h33.845v5.785c0-0.052-0.576-1.458-1.314-2.019
	c-0.74-0.619-1.367-0.841-2.271-0.841L145.827,13.912z"/>
<path fill="#10345A" d="M189.86,49.421c0,0.841,0.172,1.743,0.508,2.188c0.582,0.729,2.168,1.279,2.278,1.279h-11.545
	c0.126-0.055,1.539-0.61,2.104-1.344c0.463-0.611,0.805-1.178,0.805-1.96l0.039-18.122l-10.451-16.375
	c-0.573-0.889-0.962-1.396-1.764-2.124c-0.967-0.842-2.734-1.743-2.845-1.789h12.237c-0.126,0-1.766,0.665-2.114,1.563
	c-0.286,0.902,0.22,1.626,0.74,2.471l8.751,13.625l6.943-13.069c0.57-1.063,1.312-2.467,1.257-2.961
	c-0.233-0.855-0.918-1.35-1.724-1.583h8.324c-1.146,0.283-1.722,0.787-2.517,1.518c-0.724,0.672-1.079,1.286-1.526,2.19
	L189.86,31.58V49.421z"/>
<path fill="#10345A" d="M216.137,52.915c0.066-0.151,1.5-1,2.02-1.917c0.354-0.648,0.642-1.218,0.642-2.067V3.991
	c0-0.86-0.288-1.407-0.726-2.058c-0.502-0.918-1.869-1.846-2.014-1.846h12.674c-0.076,0-1.373,0.713-1.875,1.495
	c-0.576,0.78-0.934,1.418-0.934,2.408v44.801h17.346c1.584,0,2.598-0.493,3.963-1.355c1.293-0.771,2.023-1.477,2.742-2.836
	l-1.154,8.314H216.137z"/>
<path fill="#10345A" d="M269.528,49.752c0,0.788,0.334,1.284,0.798,1.91c0.452,0.555,1.476,1.226,1.476,1.226h-9.947
	c0.066-0.098,1.183-0.773,1.584-1.51c0.353-0.509,0.58-0.95,0.58-1.626V14.255c0-0.677-0.182-1.069-0.524-1.626
	c-0.394-0.789-1.472-1.454-1.573-1.454h9.881c0,0-1.023,0.55-1.476,1.173c-0.464,0.616-0.798,1.113-0.798,1.907V49.752z"/>
<path fill="#10345A" d="M304.567,13.912v35.779c0,0.849,0.35,1.35,0.756,1.971c0.453,0.555,1.459,1.226,1.53,1.226h-10.471
	c0.116-0.098,1.249-0.671,1.7-1.393c0.294-0.558,0.518-1.003,0.518-1.743V13.859l-9.611,0.276c-1.143,0-2.039,0-2.949,0.731
	c-0.861,0.624-1.367,2.356-1.367,2.417l-0.053-6.011h33.834v5.785c0-0.052-0.578-1.458-1.309-2.019
	c-0.74-0.619-1.373-0.841-2.277-0.841L304.567,13.912z"/>
<path fill="#10345A" d="M347.321,28.496c0.565,0,1.137-0.277,1.594-0.615c0.562-0.335,0.843-0.729,1.074-1.345v6.448
	c-0.121-0.623-0.402-1.005-0.914-1.348c-0.502-0.391-0.967-0.45-1.641-0.45h-10.355v18.461h13.424c1.421,0,2.382-0.286,3.527-1.126
	c1.133-0.791,1.816-1.626,2.207-2.973l-1.179,7.345h-26.11c0.113-0.108,1.254-0.731,1.823-1.342c0.562-0.619,0.8-1.232,0.8-2.077
	V15.6c0-1.071-0.287-1.96-0.91-2.63c-0.684-0.848-2.096-1.75-2.215-1.797h24.897v5.149c-0.459-0.771-0.916-1.175-1.699-1.682
	c-0.8-0.441-1.435-0.671-2.342-0.671h-12.158v14.526H347.321z"/>
<path fill="#10345A" d="M361.829,10.911v6.98h1.21v-2.739h0.975c0.665,0,1.121,0.079,1.382,0.224
	c0.445,0.268,0.669,0.79,0.669,1.594v0.554l0.029,0.228c0.009,0.029,0.019,0.046,0.019,0.072c0.011,0.023,0.017,0.05,0.02,0.068
	h1.146l-0.039-0.09c-0.046-0.051-0.065-0.168-0.068-0.356c-0.017-0.181-0.021-0.357-0.021-0.521v-0.5c0-0.358-0.13-0.727-0.383-1.09
	c-0.253-0.371-0.645-0.601-1.186-0.696c0.43-0.062,0.77-0.177,1.007-0.328c0.438-0.3,0.689-0.754,0.689-1.376
	c0-0.882-0.355-1.47-1.097-1.767c-0.403-0.174-1.031-0.256-1.905-0.256H361.829z M366.064,13.047c0,0.536-0.243,0.885-0.72,1.076
	c-0.276,0.101-0.663,0.155-1.184,0.155h-1.122v-2.481h1.043c0.707,0,1.201,0.078,1.511,0.255
	C365.907,12.218,366.064,12.557,366.064,13.047 M370.763,14.407c0-1.752-0.615-3.24-1.861-4.474
	c-1.239-1.232-2.751-1.854-4.506-1.854s-3.245,0.621-4.491,1.854c-1.242,1.238-1.859,2.735-1.859,4.474
	c0,1.77,0.609,3.287,1.832,4.516c1.242,1.253,2.75,1.868,4.519,1.868c1.755,0,3.267-0.615,4.506-1.868
	C370.148,17.684,370.763,16.171,370.763,14.407 M364.396,8.961c1.521,0,2.813,0.533,3.887,1.601
	c1.071,1.064,1.604,2.361,1.604,3.865c0,1.514-0.533,2.811-1.604,3.893c-1.073,1.066-2.354,1.601-3.887,1.601
	c-1.527,0-2.812-0.534-3.89-1.601c-1.045-1.082-1.59-2.379-1.59-3.893c0-1.504,0.545-2.801,1.601-3.865
	C361.607,9.494,362.883,8.961,364.396,8.961"/>
</svg>
