<?xml version="1.0" encoding="UTF-8" standalone="no"?>
<svg id="Layer_1" xmlns:rdf="http://www.w3.org/1999/02/22-rdf-syntax-ns#" xmlns="http://www.w3.org/2000/svg" version="1.1" xmlns:osb="http://www.openswatchbook.org/uri/2009/osb" xml:space="preserve" height="53" width="371" enable-background="new 0 0 504 144" y="0px" x="0px" xmlns:cc="http://creativecommons.org/ns#" xmlns:xlink="http://www.w3.org/1999/xlink" viewBox="0 0 371 53.000002" xmlns:dc="http://purl.org/dc/elements/1.1/"><defs><clipPath id="SVGID_79_">
			<use id="use6293" xlink:href="#SVGID_78_" height="100%" width="100%" y="0" x="0" overflow="visible"/>
		</clipPath><linearGradient id="linearGradient10756" y2="46.546" gradientUnits="userSpaceOnUse" y1="46.546" x2="290.35" x1="256.5"><stop id="stop10754" stop-color="#10335a" offset="0"/></linearGradient>
			<rect id="SVGID_78_" y="2.973" x="0" width="501.27" height="137.03"/>
					</defs><title id="title4380">PartyLite Logo</title>
<g id="g11390" transform="translate(-.000015259)"><g fill="#10335a"><path id="path6435" d="m140.5 43.068c3.02 1.215 4.968 1.215 8.208 1.352 8.636 0.352 16.912-6.738 16.767-15.545-0.286-9.375-8.777-14.41-17.562-14.41h-17.205c0.219 0.066 1.511 0.999 2.017 1.974 0.435 0.729 0.652 1.281 0.652 2.071l0.066 44.864c0 0.854-0.217 1.562-0.718 2.206-0.506 0.843-1.939 1.704-2.086 1.773h12.668c-0.077 0-1.369-0.847-1.872-1.56-0.579-0.712-0.935-1.426-0.935-2.419v-20.306zm4.675-1.491c-1.798-0.14-3.025-0.14-4.747-0.637l0.072-22.854h7.269c5.901 0 10.01 3.626 10.293 11.075 0.217 6.667-4.891 12.918-12.887 12.416" clip-path="url(#SVGID_79_)" transform="translate(-130.64 -14.465)"/><path id="path6437" d="m173.11 67.358c-0.066 0-1.604-0.576-1.938-1.348-0.288-0.799 0.049-1.409 0.334-2.199l3.98-9.468h16.037l3.531 8.519c0.394 1.074 0.966 1.857 0.512 2.92-0.455 0.9-2.047 1.576-2.107 1.576h11.829c-0.113 0-1.879-0.795-2.677-1.629-0.687-0.74-0.905-1.293-1.313-2.241l-16.32-38.991-16.71 39.094c-0.395 0.95-0.674 1.576-1.413 2.362-0.566 0.61-1.706 1.334-1.821 1.405h8.081zm17.282-15.715h-13.762l6.71-16.536 7.052 16.536z" clip-path="url(#SVGID_79_)" transform="translate(-130.64 -14.465)"/><path id="path6439" d="m223.98 47.621h3.528c0.965 0 2.107 0.217 3.07 0.9 0.679 0.383 1.142 0.835 1.532 1.512l9.444 14.978c0.34 0.611 0.678 0.949 1.253 1.396 0.676 0.503 1.189 0.733 1.987 0.951h7.395c-1.142-0.386-1.885-0.731-3.021-1.341-1.36-0.795-4.943-6.003-7.17-10.039-3.569-6.567-7.721-9.655-7.896-9.826 0.457-0.106 8.817-2.3 8.588-10.311-0.228-7.512-7.617-10.203-12.741-10.203h-13.471c0.112 0 1.248 0.77 1.657 1.565 0.276 0.555 0.5 0.96 0.5 1.626l-0.057 35.388c0 0.676-0.221 1.122-0.567 1.633-0.398 0.724-1.533 1.4-1.594 1.508h9.949s-1.027-0.676-1.477-1.238c-0.453-0.608-0.908-1.109-0.908-1.958v-16.541zm5.518-2.529c-0.57 0.231-5.343 0.11-5.518 0.06l0.062-17.339h3.69c7.734 0 17.283 11.055 1.766 17.279" clip-path="url(#SVGID_79_)" transform="translate(-130.64 -14.465)"/></g><path id="path6441" d="m276.47 28.377v35.779c0 0.849 0.334 1.35 0.737 1.971 0.448 0.555 1.474 1.226 1.536 1.226h-10.467c0.116-0.098 1.246-0.671 1.703-1.393 0.283-0.558 0.512-1.003 0.512-1.743v-35.893l-9.602 0.277c-1.145 0-2.058 0-2.96 0.731-0.854 0.624-1.366 2.356-1.366 2.417l-0.062-6.011h33.845v5.785c0-0.051-0.577-1.458-1.315-2.018-0.739-0.619-1.367-0.841-2.271-0.841l-10.29-0.287z" clip-path="url(#SVGID_79_)" transform="translate(-130.64 -14.465)" fill="url(#linearGradient10756)"/><g fill="#10335a"><path id="path6443" d="m320.5 63.886c0 0.84 0.172 1.743 0.507 2.188 0.582 0.729 2.168 1.279 2.278 1.279h-11.545c0.126-0.054 1.539-0.61 2.105-1.343 0.462-0.612 0.804-1.178 0.804-1.96l0.04-18.122-10.452-16.375c-0.572-0.889-0.962-1.397-1.764-2.124-0.966-0.842-2.734-1.744-2.844-1.789h12.236c-0.126 0-1.766 0.665-2.113 1.563-0.287 0.902 0.22 1.626 0.739 2.471l8.751 13.625 6.943-13.07c0.571-1.062 1.312-2.466 1.257-2.961-0.232-0.855-0.918-1.349-1.723-1.583h8.324c-1.147 0.284-1.723 0.788-2.518 1.518-0.724 0.672-1.079 1.286-1.525 2.19l-9.502 16.652v17.841z" clip-path="url(#SVGID_79_)" transform="translate(-130.64 -14.465)"/><path id="path6445" d="m346.78 67.38c0.065-0.151 1.499-1 2.019-1.917 0.354-0.648 0.643-1.217 0.643-2.067v-44.939c0-0.861-0.288-1.408-0.727-2.058-0.501-0.918-1.869-1.846-2.013-1.846h12.673c-0.076 0-1.373 0.713-1.875 1.495-0.576 0.781-0.933 1.418-0.933 2.409v44.8h17.346c1.583 0 2.597-0.493 3.963-1.355 1.293-0.772 2.023-1.477 2.741-2.836l-1.153 8.314h-32.684z" clip-path="url(#SVGID_79_)" transform="translate(-130.64 -14.465)"/><path id="path6447" d="m400.17 64.217c0 0.788 0.334 1.284 0.797 1.91 0.452 0.555 1.477 1.226 1.477 1.226h-9.948c0.066-0.098 1.183-0.774 1.585-1.51 0.352-0.509 0.579-0.95 0.579-1.626v-35.497c0-0.677-0.182-1.07-0.524-1.626-0.393-0.789-1.471-1.454-1.573-1.454h9.882s-1.024 0.55-1.477 1.173c-0.463 0.616-0.797 1.113-0.797 1.907v35.497z" clip-path="url(#SVGID_79_)" transform="translate(-130.64 -14.465)"/><path id="path6449" d="m435.21 28.377v35.779c0 0.849 0.35 1.35 0.756 1.971 0.453 0.555 1.46 1.226 1.531 1.226h-10.472c0.117-0.098 1.249-0.671 1.7-1.393 0.294-0.558 0.518-1.003 0.518-1.743v-35.893l-9.611 0.277c-1.143 0-2.039 0-2.948 0.731-0.862 0.624-1.368 2.356-1.368 2.417l-0.053-6.011h33.835v5.785c0-0.051-0.579-1.458-1.309-2.018-0.74-0.619-1.373-0.841-2.277-0.841l-10.302-0.287z" clip-path="url(#SVGID_79_)" transform="translate(-130.64 -14.465)"/><path id="path6451" d="m477.96 42.961c0.565 0 1.137-0.277 1.594-0.615 0.562-0.335 0.843-0.73 1.074-1.345v6.448c-0.121-0.623-0.402-1.005-0.914-1.347-0.502-0.391-0.966-0.451-1.641-0.451h-10.355v18.461h13.424c1.421 0 2.382-0.286 3.527-1.126 1.134-0.791 1.816-1.626 2.208-2.972l-1.18 7.344h-26.11c0.114-0.108 1.254-0.731 1.824-1.341 0.562-0.619 0.8-1.233 0.8-2.077v-33.875c0-1.072-0.288-1.96-0.911-2.63-0.684-0.848-2.095-1.75-2.214-1.797h24.896v5.149c-0.459-0.771-0.916-1.175-1.698-1.681-0.801-0.442-1.436-0.671-2.343-0.671h-12.157v14.526h10.176z" clip-path="url(#SVGID_79_)" transform="translate(-130.64 -14.465)"/><path id="path6453" d="m491.47 25.376v6.981h1.21v-2.74h0.975c0.665 0 1.121 0.08 1.382 0.224 0.445 0.268 0.67 0.79 0.67 1.594v0.554l0.028 0.227c0.009 0.029 0.02 0.046 0.02 0.072 0.01 0.024 0.016 0.05 0.019 0.069h1.147l-0.039-0.09c-0.046-0.051-0.066-0.168-0.069-0.357-0.016-0.18-0.02-0.357-0.02-0.521v-0.5c0-0.358-0.131-0.727-0.384-1.09-0.253-0.371-0.645-0.6-1.186-0.696 0.43-0.062 0.77-0.177 1.007-0.328 0.438-0.3 0.69-0.754 0.69-1.376 0-0.882-0.356-1.47-1.098-1.767-0.402-0.174-1.03-0.256-1.904-0.256h-2.448zm4.236 2.136c0 0.536-0.243 0.885-0.721 1.076-0.275 0.101-0.663 0.155-1.183 0.155h-1.123v-2.481h1.043c0.707 0 1.202 0.078 1.511 0.255 0.316 0.166 0.473 0.505 0.473 0.995m4.698 1.36c0-1.752-0.614-3.24-1.86-4.473-1.24-1.233-2.751-1.854-4.507-1.854-1.755 0-3.244 0.621-4.491 1.854-1.241 1.238-1.859 2.735-1.859 4.473 0 1.77 0.609 3.287 1.833 4.516 1.241 1.253 2.749 1.868 4.518 1.868 1.756 0 3.267-0.615 4.507-1.868 1.245-1.239 1.859-2.752 1.859-4.516m-6.367-5.446c1.521 0 2.813 0.533 3.888 1.601 1.07 1.064 1.604 2.361 1.604 3.865 0 1.514-0.533 2.81-1.604 3.892-1.074 1.067-2.355 1.601-3.888 1.601-1.526 0-2.811-0.534-3.89-1.601-1.044-1.082-1.59-2.378-1.59-3.892 0-1.504 0.546-2.801 1.601-3.865 1.091-1.068 2.366-1.601 3.879-1.601" clip-path="url(#SVGID_79_)" transform="translate(-130.64 -14.465)"/></g></g>
</svg>
